/* XPM */
static char *_40a154b112243a5cc5dfe900f77107dmcVLZoIn3EQ9quXh[] = {
/* columns rows colors chars-per-pixel */
"64 64 209 2 ",
"   c #211313",
".  c #382F36",
"X  c #594B57",
"o  c #584A56",
"O  c #473C45",
"+  c gray2",
"@  c #120F11",
"#  c #534651",
"$  c #594B56",
"%  c #8F788B",
"&  c #8D7789",
"*  c #8F798B",
"=  c #72606F",
"-  c #070708",
";  c #1B171B",
":  c #857082",
">  c #8E788A",
",  c #8C7688",
"<  c #8D778A",
"1  c #75616F",
"2  c #1B1210",
"3  c #140B07",
"4  c #140B08",
"5  c #120A06",
"6  c #2C2122",
"7  c #857081",
"8  c #8B7689",
"9  c #95737C",
"0  c #BA694E",
"q  c #BE684A",
"w  c #BD684A",
"e  c #BE6849",
"r  c #B36B56",
"t  c #8F7585",
"y  c #9C777F",
"u  c #DC7C5B",
"i  c #E27C58",
"p  c #E17C58",
"a  c #E27C57",
"s  c #D07B62",
"d  c #917685",
"f  c #DA7B5A",
"g  c #DF7B57",
"h  c #E07B56",
"j  c #CE7A61",
"k  c #DE7A56",
"l  c #DD7955",
"z  c #E07C57",
"x  c #D16E4B",
"c  c #B45231",
"v  c #B35130",
"b  c #B25130",
"n  c #C56341",
"m  c #E07C58",
"M  c #CC6946",
"N  c #A44323",
"B  c #A34222",
"V  c #A34223",
"C  c #A24122",
"Z  c #BC5A38",
"A  c #B2502F",
"S  c #C56340",
"D  c #E07B57",
"F  c #CF7A61",
"G  c #9B777F",
"H  c #D57A5D",
"J  c #DB7B5A",
"K  c #CA7A63",
"L  c #907685",
"P  c #8F7686",
"I  c #987781",
"U  c #8D7687",
"Y  c #8C778A",
"T  c #8C7789",
"R  c #4E424C",
"E  c #7C6A7A",
"W  c #7B6979",
"Q  c #7A6978",
"!  c #7E6B7C",
"~  c #8B7587",
"^  c #141619",
"/  c #202328",
"(  c #1F2327",
")  c #1E2226",
"_  c #35343B",
"`  c #867183",
"'  c #0C1011",
"]  c #13191C",
"[  c #12181B",
"{  c #2C2C32",
"}  c #857182",
"|  c #12191B",
" . c #131A1D",
".. c #12151A",
"X. c #1D2129",
"o. c #1C2129",
"O. c #1B2027",
"+. c #151B1F",
"@. c #12191C",
"#. c #2C2D33",
"$. c #28272D",
"%. c #0D1214",
"&. c #111518",
"*. c #1B1F27",
"=. c #21212F",
"-. c #34354A",
";. c #34344A",
":. c #313145",
">. c #181E23",
",. c #846F80",
"<. c #1D181C",
"1. c #08080B",
"2. c #2F2F42",
"3. c #222230",
"4. c #36364C",
"5. c #35354B",
"6. c #34354B",
"7. c #34354C",
"8. c #313247",
"9. c #867283",
"0. c #1C181B",
"q. c #07070A",
"w. c #2F3044",
"e. c #22222F",
"r. c #413747",
"t. c #723D36",
"y. c #763E34",
"u. c #763E35",
"i. c #6C3A32",
"p. c #211F20",
"a. c #443F48",
"s. c #47414A",
"d. c #433E47",
"f. c #17191C",
"g. c #0A0E10",
"h. c #1A1516",
"j. c #6B3931",
"k. c #4B3843",
"l. c #A04326",
"z. c #A74423",
"x. c #A84523",
"c. c #984023",
"v. c #28201E",
"b. c #141A1D",
"n. c #4B3844",
"m. c #9E4326",
"M. c #A54424",
"N. c #A64424",
"B. c #964023",
"V. c #27201E",
"C. c #12191D",
"Z. c #974023",
"A. c #31221E",
"S. c #1E1D1D",
"D. c #1F1D1E",
"F. c #A24324",
"G. c #8F3E23",
"H. c #8C3D23",
"J. c #9F4426",
"K. c #A64524",
"L. c #A74424",
"P. c #A74524",
"I. c #A84524",
"U. c #473644",
"Y. c #8E382A",
"T. c #943828",
"R. c #953928",
"E. c #A14225",
"W. c #A24225",
"Q. c #9F4025",
"!. c #403146",
"~. c #6C2132",
"^. c #701F30",
"/. c #6F1F30",
"(. c #72212F",
"). c #9A3C27",
"_. c #9A3D26",
"`. c #73212F",
"'. c #702030",
"]. c #933828",
"[. c #6B2032",
"{. c #6E1E30",
"}. c #712030",
"|. c #993C27",
" X c #9A3C26",
".X c #6E1F30",
"XX c #453445",
"oX c #82302D",
"OX c #88302A",
"+X c #88302B",
"@X c #87302B",
"#X c #89312A",
"$X c #9B3D26",
"%X c #9F4326",
"&X c #483844",
"*X c #92412B",
"=X c #994228",
"-X c #984228",
";X c #38354A",
":X c #423746",
">X c #433746",
",X c #36364D",
"<X c #35364C",
"1X c #1A1A25",
"2X c #2A2A3C",
"3X c #2A2A3B",
"4X c #020202",
"5X c #030304",
"6X c white",
/* pixels */
"                                                                                                                                ",
"                                                                                                                                ",
"                                                                                                                                ",
". X o o X O +                                         @ # $ o o o o $ # @                                         + O X o o X . ",
"X % & & * = -                                         ; : > & & & & > : ;                                         - = * & & % X ",
"$ & , , < 1 2 3 4 4 4 4 4 4 4 4 4 4 4 4 4 4 4 4 4 4 5 6 7 , , , , , , 7 6 5 4 4 4 4 4 4 4 4 4 4 4 4 4 4 4 4 4 4 3 2 1 < , , & $ ",
"$ & , , 8 9 0 q w w w w w w w w w w w w w w w w w w e r t , , , , , , t r e w w w w w w w w w w w w w w w w w w q 0 9 8 , , & $ ",
"$ & , , 8 y u i p p p p p p p p p p p p p p p p p p a s d , , , , , , d s a p p p p p p p p p p p p p p p p p p i u y 8 , , & $ ",
"$ & , , 8 y f g g g g g g g g g g g g g g g g g g g h j d , , , , , , d j h g g g g g g g g g g g g g g g g g g g f y 8 , , & $ ",
"$ & , , 8 y f g g g g g g g g g g g g g g g g g g g h j d , , , , , , d j h g g g g g g g g g g g g g g g g g g g f y 8 , , & $ ",
"$ & , , 8 y f g g g g g g g g g g g g g g g g g g g h j d , , , , , , d j h g g g g g g g g g g g g g g g g g g g f y 8 , , & $ ",
"$ & , , 8 y f g g g g g g g g g g g g g g g g g g g h j d , , , , , , d j h g g g g g g g g g g g g g g g g g g g f y 8 , , & $ ",
"$ & , , 8 y f g g g g g g g g g g g g g g g g g g g h j d , , , , , , d j h g g g g g g g g g g g g g g g g g g g f y 8 , , & $ ",
"$ & , , 8 y f g g g g g g g g g g g g g g g g g g g h j d , , , , , , d j h g g g g g g g g g g g g g g g g g g g f y 8 , , & $ ",
"$ & , , 8 y f g g g g g g g g g g g g g g g g g g g h j d , , , , , , d j h g g g g g g g g g g g g g g g g g g g f y 8 , , & $ ",
"$ & , , 8 y f g g g g g g g g g g g g g g g g g g g h j d , , , , , , d j h g g g g g g g g g g g g g g g g g g g f y 8 , , & $ ",
"$ & , , 8 y f g k l l l l l l l l l l k g g g g g g h j d , , , , , , d j h g g g g g g g g g g g g g g g g g g g f y 8 , , & $ ",
"$ & , , 8 y f z x c v v v v v v v v b n g g g g g g h j d , , , , , , d j h g g g g g g g g g g g g g g g g g g g f y 8 , , & $ ",
"$ & , , 8 y f m M N B V V V V V V V C Z g g g g g g h j d , , , , , , d j h g g g g g g g g g g g g g g g g g g g f y 8 , , & $ ",
"$ & , , 8 y f z x v v v v v v v v v A S g g g g g g h j d , , , , , , d j h g g g g g g g g g g g g g g g g g g g f y 8 , , & $ ",
"$ & , , 8 y f g k l l l l l l l l l l k g g g g g g h j d , , , , , , d j h g g g g g g g g g g g g g g g g g g g f y 8 , , & $ ",
"$ & , , 8 y f g g g g g g g g g g g g g g g g g g g h j d , , , , , , d j h g g g g g g g g g g g g g g g g g g g f y 8 , , & $ ",
"$ & , , 8 y f g g g g g g g g g g g g g g g g g g g h j d , , , , , , d j h g g g g g g g g g g g g g g g g g g g f y 8 , , & $ ",
"$ & , , 8 y f g g g g g g g g g g g g g g g g g g g h j d , , , , , , d j h g g g g g g g g g g g g g g g g g g g f y 8 , , & $ ",
"$ & , , 8 y f g g g g g g g g g g g g g g g g g g g h j d , , , , , , d j h g g g g g g g g g g g g g g g g g g g f y 8 , , & $ ",
"$ & , , 8 y f g g g g g g g g g g g g g g g g g g g h j d , , , , , , d j h g g g g g g g g g g g g g g g g g g g f y 8 , , & $ ",
"$ & , , 8 y f D g g g g g g g g g g g g g g g g g g h F d , , , , , , d F h g g g g g g g g g g g g g g g g g g D f y 8 , , & $ ",
"$ & , , 8 G H f f f f f f f f f f f f f f f f f f f J K L , , , , , , L K J f f f f f f f f f f f f f f f f f f f H G 8 , , & $ ",
"$ & , , , P G y y y y y y y y y y y y y y y y y y y y I U , , , , , , U I y y y y y y y y y y y y y y y y y y y y G P , , , & $ ",
"X > & & & & Y Y Y Y Y Y Y Y Y Y Y Y Y Y Y Y Y Y Y Y Y T , , , , , , , , T Y Y Y Y Y Y Y Y Y Y Y Y Y Y Y Y Y Y Y Y Y & & & & > X ",
"R E W W W W W W W W W W W W W W W W W W W W W W W W Q ! ~ , , , , , , ~ ! Q W W W W W W W W W W W W W W W W W W W W W W W W E R ",
"^ / ( ( ( ( ( ( ( ( ( ( ( ( ( ( ( ( ( ( ( ( ( ( ( ( ) _ ` , , , , , , ` _ ) ( ( ( ( ( ( ( ( ( ( ( ( ( ( ( ( ( ( ( ( ( ( ( ( / ^ ",
"' ] ] ] ] ] ] ] ] ] ] ] ] ] ] ] ] ] ] ] ] ] ] ] ] ] [ { } , , , , , , } { |  .] ] ] ] ] ] ] ] ] ] ] ] ] ] ] ] ] ] ] ] ] ] ] ] ' ",
"..X.o.o.o.o.o.o.o.o.o.o.o.o.o.o.o.o.o.o.o.o.o.o.O.+.@.#.} , , , , , , : $.%.&.*.o.o.o.o.o.o.o.o.o.o.o.o.o.o.o.o.o.o.o.o.o.o.X...",
"=.-.;.;.;.;.;.;.;.;.;.;.;.;.;.;.;.;.;.;.;.;.;.;.:.>.| #.} , , , , , , ,.<.  1.2.;.;.;.;.;.;.;.;.;.;.;.;.;.;.;.;.;.;.;.;.;.;.-.=.",
"3.4.5.5.5.5.6.6.6.6.6.6.6.6.6.6.6.6.6.6.6.6.6.7.8.>.| #.9.& & & & & & 7 0.  q.w.7.6.6.6.6.6.6.6.6.6.6.6.6.6.6.6.6.6.5.5.5.5.4.3.",
"e.4.5.5.6.r.t.y.u.u.u.u.u.u.u.u.u.u.u.u.u.u.u.u.i.p.@.) a.s.s.s.s.s.s.d.f.g.h.j.u.u.u.u.u.u.u.u.u.u.u.u.u.u.u.u.y.t.r.6.5.5.4.e.",
"e.4.5.5.6.k.l.z.z.z.z.z.z.z.z.z.z.z.z.z.z.z.z.x.c.v. .b.[ [ [ [ [ [ [ [ b. .v.c.x.z.z.z.z.z.z.z.z.z.z.z.z.z.z.z.z.l.k.6.5.5.4.e.",
"e.4.5.5.6.n.m.M.M.M.M.M.M.M.M.M.M.M.M.M.M.M.M.N.B.v. .b.b.b.b.b.b.b.b.b.b. .v.B.N.M.M.M.M.M.M.M.M.M.M.M.M.M.M.M.M.m.n.6.5.5.4.e.",
"e.4.5.5.6.n.m.M.M.M.M.M.M.M.M.M.M.M.M.M.M.M.M.N.B.v. .b.b.b.b.b.b.b.b.b.b. .v.B.N.M.M.M.M.M.M.M.M.M.M.M.M.M.M.M.M.m.n.6.5.5.4.e.",
"e.4.5.5.6.n.m.M.M.M.M.M.M.M.M.M.M.M.M.M.M.M.M.N.B.V.C. . . . . . . . . . .C.V.B.N.M.M.M.M.M.M.M.M.M.M.M.M.M.M.M.M.m.n.6.5.5.4.e.",
"e.4.5.5.6.n.m.M.M.M.M.M.M.M.M.M.M.M.M.M.M.M.M.N.Z.A.S.D.D.D.D.D.D.D.D.D.D.S.A.Z.N.M.M.M.M.M.M.M.M.M.M.M.M.M.M.M.M.m.n.6.5.5.4.e.",
"e.4.5.5.6.n.m.M.M.M.M.M.M.M.M.M.M.M.M.M.M.M.M.M.F.G.H.H.H.H.H.H.H.H.H.H.H.H.G.F.M.M.M.M.M.M.M.M.M.M.M.M.M.M.M.M.M.m.n.6.5.5.4.e.",
"e.4.5.5.6.k.J.K.K.K.K.K.K.K.M.M.M.M.M.M.M.M.M.M.M.N.L.P.P.I.I.I.I.P.L.L.L.L.N.M.M.M.M.M.M.M.M.M.M.M.K.K.K.K.K.K.K.J.k.6.5.5.4.e.",
"e.4.5.5.6.U.Y.T.T.T.T.T.T.R.E.M.M.M.M.M.M.M.M.M.M.M.M.W.R.T.T.T.T.Q.M.M.M.M.M.M.M.M.M.M.M.M.M.M.M.E.R.T.T.T.T.T.T.Y.U.6.5.5.4.e.",
"e.4.5.5.6.!.~.^.^.^.^.^./.(.).N.M.M.M.M.M.M.M.M.M.M.N._.`./.^.^.'.].K.M.M.M.M.M.M.M.M.M.M.M.M.M.N.).(./.^.^.^.^.^.~.!.6.5.5.4.e.",
"e.4.5.5.6.!.[.{.{.{.{.{.{.}.|.N.M.M.M.M.M.M.M.M.M.M.N. X}.{.{.{..X].K.M.M.M.M.M.M.M.M.M.M.M.M.M.N.|.}.{.{.{.{.{.{.[.!.6.5.5.4.e.",
"e.4.5.5.6.XXoXOX+X+X+X+X@X#XQ.M.M.M.M.M.M.M.M.M.M.M.M.Q.#X@X+X@X+X$XN.M.M.M.M.M.M.M.M.M.M.M.M.M.M.Q.#X@X+X+X+X+XOXoXXX6.5.5.4.e.",
"e.4.5.5.6.k.%XN.N.N.N.N.N.N.M.M.M.M.M.M.M.M.M.M.M.M.M.M.N.N.N.N.N.M.M.M.M.M.M.M.M.M.M.M.M.M.M.M.M.M.N.N.N.N.N.N.N.%Xk.6.5.5.4.e.",
"e.4.5.5.6.n.m.M.M.M.M.M.M.M.M.M.M.M.M.M.M.M.M.M.M.M.M.M.M.M.M.M.M.M.M.M.M.M.M.M.M.M.M.M.M.M.M.M.M.M.M.M.M.M.M.M.M.m.n.6.5.5.4.e.",
"e.4.5.5.6.n.m.M.M.M.M.M.M.M.M.M.M.M.M.M.M.M.M.M.M.M.M.M.M.M.M.M.M.M.M.M.M.M.M.M.M.M.M.M.M.M.M.M.M.M.M.M.M.M.M.M.M.m.n.6.5.5.4.e.",
"e.4.5.5.6.k.%XN.N.N.N.N.N.N.N.N.N.N.N.N.N.N.N.N.N.N.N.N.N.N.N.N.N.N.N.N.N.N.N.N.N.N.N.N.N.N.N.N.N.N.N.N.N.N.N.N.N.%Xk.6.5.5.4.e.",
"e.4.5.5.6.&X*X=X-X-X-X-X-X-X-X-X-X-X-X-X-X-X-X-X-X-X-X-X-X-X-X-X-X-X-X-X-X-X-X-X-X-X-X-X-X-X-X-X-X-X-X-X-X-X-X-X=X*X&X6.5.5.4.e.",
"e.4.5.5.5.;X:X>X>X>X>X>X>X>X>X>X>X>X>X>X>X>X>X>X>X>X>X>X>X>X>X>X>X>X>X>X>X>X>X>X>X>X>X>X>X>X>X>X>X>X>X>X>X>X>X>X>X:X;X5.5.5.4.e.",
"3.,X4.4.4.4.<X<X<X<X<X<X<X<X<X<X<X<X<X<X<X<X<X<X<X<X<X<X<X<X<X<X<X<X<X<X<X<X<X<X<X<X<X<X<X<X<X<X<X<X<X<X<X<X<X<X<X<X4.4.4.4.,X3.",
"1X2X3X3X3X3X3X3X3X3X3X3X3X3X3X3X3X3X3X3X3X3X3X3X3X3X3X3X3X3X3X3X3X3X3X3X3X3X3X3X3X3X3X3X3X3X3X3X3X3X3X3X3X3X3X3X3X3X3X3X3X3X2X1X",
"4X5X5X5X5X5X5X5X5X5X5X5X5X5X5X5X5X5X5X5X5X5X5X5X5X5X5X5X5X5X5X5X5X5X5X5X5X5X5X5X5X5X5X5X5X5X5X5X5X5X5X5X5X5X5X5X5X5X5X5X5X5X5X4X",
"                                                                                                                                ",
"                                                                                                                                ",
"                                                                                                                                ",
"                                                                                                                                ",
"                                                                                                                                ",
"                                                                                                                                ",
"                                                                                                                                "
};
