/* XPM */
static char *result[] = {
/* columns rows colors chars-per-pixel */
"64 64 178 2 ",
"   c #211313",
".  c #1D1516",
"X  c #1E1718",
"o  c #211313",
"O  c #231A17",
"+  c #2C1E17",
"@  c #221718",
"#  c #211313",
"$  c #211313",
"%  c #2B211A",
"&  c #322219",
"*  c #3F2A19",
"=  c #332618",
"-  c #39321B",
";  c #282120",
":  c #272021",
">  c #352A26",
",  c #393131",
"<  c #40361F",
"1  c #4B311C",
"2  c #613F1E",
"3  c #423629",
"4  c #473A32",
"5  c #6C451F",
"6  c #72491F",
"7  c #4C4420",
"8  c #534E20",
"9  c #575122",
"0  c #595222",
"q  c #6E4620",
"w  c #7E5224",
"e  c #794D22",
"r  c #696225",
"t  c #676224",
"y  c #726C27",
"u  c #7F7A28",
"i  c #787227",
"p  c #4B4444",
"a  c #504A4A",
"s  c #696465",
"d  c #855522",
"f  c #8F5A23",
"g  c #885621",
"h  c #925D25",
"j  c #9D6323",
"k  c #807B28",
"l  c #AD6D25",
"z  c #A06523",
"x  c #B16F25",
"c  c #B37026",
"v  c #BB7626",
"b  c #BC7729",
"n  c #C97D25",
"m  c #CA7F28",
"M  c #C77D28",
"N  c #8B852B",
"B  c #8E8A2C",
"V  c #918B2C",
"C  c #9D942E",
"Z  c #9C9834",
"A  c #BB803E",
"S  c #ACA832",
"D  c #CD8029",
"F  c #D1832A",
"G  c #DD8A2D",
"H  c #D8872C",
"J  c #CB8332",
"K  c #D18C3D",
"L  c #E48E2D",
"P  c #ED942F",
"I  c #FD9B2E",
"U  c #F29630",
"Y  c #F69931",
"T  c #FD9D32",
"R  c #FD9F38",
"E  c #C2BF36",
"W  c #E6A833",
"Q  c #FDA233",
"!  c #FDAD35",
"~  c #FDA13B",
"^  c #FDB536",
"/  c #C5C236",
"(  c #DDDA3B",
")  c #D8D53A",
"_  c #EAC839",
"`  c #FDC439",
"'  c #FECD3A",
"]  c #FDC637",
"[  c #FED23B",
"{  c #FEDA3C",
"}  c #F6D33B",
"|  c #FEE13D",
" . c #FEEC3F",
".. c #F3F03F",
"X. c #FEFD3F",
"o. c #E4E23D",
"O. c #B1A152",
"+. c #CF8D42",
"@. c #D08E44",
"#. c #211313",
"$. c #211313",
"%. c #C8955D",
"&. c #E89C49",
"*. c #FDA545",
"=. c #FDA749",
"-. c #FDA84B",
";. c #FDAD55",
":. c #FDAE59",
">. c #FDB15E",
",. c #D79F62",
"<. c #DBA164",
"1. c #DDAE7C",
"2. c #F2AF67",
"3. c #FDB362",
"4. c #FDB66A",
"5. c #FEB96D",
"6. c #FDBA72",
"7. c #C5C34E",
"8. c #FEEE40",
"9. c #F4F240",
"0. c #FEF341",
"q. c #FEFD42",
"w. c #FEDD69",
"e. c #FEED6D",
"r. c #FEFD63",
"t. c #FEFD78",
"y. c #A9A6A6",
"u. c #BEBCAB",
"i. c #DDAF80",
"p. c #DDB182",
"a. c #D4B190",
"s. c #E3BF9A",
"d. c #E3B88A",
"f. c #FEC384",
"g. c #FDC58A",
"h. c #FEC98F",
"j. c #E6C29C",
"k. c #EAC69F",
"l. c #FECA95",
"z. c #FECD9B",
"x. c #FDD09F",
"c. c #C8C2B7",
"v. c #DBC2A8",
"b. c #FCCFA0",
"n. c #F7CDA3",
"m. c #EED0AF",
"M. c #FED2A3",
"N. c #FED5AB",
"B. c #FAD4AD",
"V. c #ECD2B5",
"C. c #FED9B5",
"Z. c #FEDCB8",
"A. c #E7C7A4",
"S. c #FFFDAF",
"D. c #FEFDB3",
"F. c #FEF5B0",
"G. c #C6C5C6",
"H. c #CFCECE",
"J. c #DEDDDD",
"K. c #EFD9C4",
"L. c #F0DDC9",
"P. c #E0DEDC",
"I. c #FFE2C4",
"U. c #FFE5CB",
"Y. c #FFFEC6",
"T. c #FFEBD7",
"R. c #F5EADE",
"E. c #FFEEDC",
"W. c #F7E5D3",
"Q. c #EEEEEE",
"!. c #EBE7E5",
"~. c #F7EEE3",
"^. c #FDEFE3",
"/. c #FFF1E3",
"(. c #FEF5ED",
"). c #FFFDEE",
"_. c #FFF9F4",
"`. c #FFFFFF",
/* pixels */
"      # # # # # # # # # # # # # # # # # # @ # # # X . . . X . . . X . . . X . . X # # # # # # # # # # @ # # # # # # # #         ",
"      # # # # # # # # # # # # # # # # # # # # # > : X X X X X o X X X o X o X X X # # # # # # # # # @ : # # # # # # # #         ",
"      # # # # $ # # # # # # # # # # # # # # # # 4 Z S S S S S S S S S S S S S S S N % # # # # # # # # # # # # # # # # #         ",
"      # # # # # # # # # # # # # # $ # # # # # X - ( q.q.q.q.q.q.q.q.q.q.q.q.q.q.q./ % X # # # # # # # # # # # # # # # #         ",
"      # # # # # # # # # # # # # # # # O @ X . . - ( q.q.q.q.q.q.q.q.q.q.q.q.q.q.q./ # X # # # # # # # # # # # # # # # #         ",
"      # # # # # # # # # # # # # # o o X . . . . - ( q.q.q.q.q.q.q.q.q.q.q.q.q.q.q./ % . @ # # # # # # # # # # # # # # #         ",
"      # # # # # # # # # # # # # 3 N V V B B V V C _ ' ' ' ' ' ' ' ' ' ' ' ' ' ' [ W h h h e $ # # # # : # # # # # # # #         ",
"      # # # # # # # # # # # # # 0 9.q.q.q.q.q.q.0.! T T T T T T T T T T T T T T T T T T T F & # # # # # # # # # # # # :         ",
"      # # # # # # # # # # # # @ 8 9.q.q.q.q.q.q.0.! T T T T T T T T T T T T T T T T T T Q F & # # # # # # # # # # # # #         ",
"      # # # # # # # # # # @ @ . 8 9.q.q.q.q.q.q.0.! T T T T T T T T T T T T T T T T T T T F $ @ @ # # # # # # # # # # #         ",
"      # # # # # # # # # > y y y V } { [ [ { { { [ ! T T T T T T T T T T T T T T T T T T T G 5 2 2 2 $ @ # # # # # # # #         ",
"      # # # # # # # # # r 9.q.q.| ! T T T Q T T T T T T T T T T T T T T T T T T T T T T T U D M M l * # # # # # # : # #         ",
"      # # $ # # # # # X r 0.q.q.8.T T T T T T T T T T T T T T T T T T T T T T T T T T T T U D M m c & @ # # # # # # # #         ",
"      # # # # # # # @ . r 0.q.q.8.Q T T T T T T T T T T T T T T T T T T T T T T T T T T T U D M m x & @ @ @ # # # # # #         ",
"      # # # # # $ > - - i 9.0.0.| T T T T T T T T T T T T Q Q ! Q Q T T T T T T T T T T T Y +.K @.b 4 , , , , $ # # # #         ",
"      # # # # @ r ) ( ( _ ! ! ! ! T T T T T T T T T T T T ' 8.8.8.' T T T T T T T T T T T :.W.~.~.R.P.P.J.H.a # # # # $         ",
"      # # # # . u q.q.q.| Q T T T T T T T T T T T T T T T [ q.q.q.[ T T T T T T Q T T T I >._.`.`.`.`.`.`.Q.p . @ # # #         ",
"      # # # . . u q.q.q.{ Q T T T T T T T T T T T T T T T [ q.q.q.[ T T T T T T T T T T I >._.`.`.`.`.`.`.Q.p . # # # #         ",
"      # # # @ . u q.q.q.| Q I T T T T T T T T T Y Q T Q Q [ q.0.q.' T T T T T T T T ~ ~ ~ 4._.`.`.`._._._.!.p . # # # #         ",
"      $ # O @ . u q.q.q.| Q T T T T T T T T T T ! { | | | ' ^ ^ ^ P H F H L T T T 3.U.U.U.T.`.`.`.~.1.,.,.%.3 . # # # #         ",
"      # # # @ . u q.q.q.{ Q T T T T T T T T T T ! 8.q.q.q.` T T Q L M D M H T T T 6._.`.`.`.`.`.`.~.+.n n v * . # # # #         ",
"      # # # @ . u q.q.q.| Q T T T T T T T T T T Q  .q.q.q.` T T T L M M D G T T T 6.`.`.`.`.`.`.`.~.+.M m v * . # # # #         ",
"      # # # @ . u q.q.q.| Q T T T T T T T T T T !  .q.q.q.` T T T L D M M G T T T 6._.`.`.`.`.`.`.~.+.M m b * X # # # #         ",
"      # # # . . u q.q.X.| T T T T T T T ! [ { { { ` ` ^ ` ! T T T L D M m <.Z.Z.Z.U.`.`.`./.g.f.f.g.m.V.V.v.4 X # # # #         ",
"      # # # o . u q.q.q.| Q T T T T T T ! 0.q.q.0.! T T T T T T T L M M n 1.`.`.`.`.`.`.`.T.~ I I -.(.`.`.Q.p . # # # #         ",
"      # # # # . u q.q.q.{ Q T T T T T T ! 0.q.q.0.! T T T T T T T L D n n 1.`.`.`.`.`.`.`.T.*.T I ;./.`.`.Q.p . # # # #         ",
"      # # # . . u q.q.q.| Q T T T T T T ! 0.q.q.0.! T T T T T T T L M D n 1.`.`.`.`.`.`.`.T.*.I I ;.(.`.`.Q.p @ # # # #         ",
"      # # # @ . u q.q.X.{ Q T T T T T T ! ` ' ` ' ' [ ` ' ^ T T I 2.j.j.j.K.`.`.`./.M.z.z.M.b.x.M.z.j.s.j.a.3 @ # $ # #         ",
"      # # # @ . u q.q.q.{ T T T T T T T T T T T ! 8.q.q.q.` Y T I z.`.`.`.`.`.`.`.I.R T I >._.`.`.~.+.M M v * . # # # #         ",
"      # # # . . u q.q.q.{ Q T T T T T T T T T T Q 8.q.q.q.] T T T z.`.`.`.`.`.`.`.U.R T T >._.`.`.~.+.n D v * . # # # #         ",
"      # # # o . u q.q.q.| Q T T T T T T T T T T ! 8.0.q.q.` I I I l.`.`.`.`.`.`.`.U.T I I :._.`.`.~.@.n D v 1 @ # # # #         ",
"      # # # o . u q.q.q.| Q T T T T T T T T T T Q 8.q.q.q.w.f.g.w.L.`.`.`./.Z.C.Z.N.g.f.f.l.C.Z.Z.n.K m n c * @ # # # #         ",
"      # # # . . u q.q.q.{ Q T T T T T T T T T T Q  .q.q.q.S.`.`.`.`.`.`.`.Z.R T T 6._.`.`.T.*.T T Y D m m v * . # # # #         ",
"      # # @ . . u q.q.q.| Q T T T T T T T T T T Q  .q.q.q.S.`.`.`.`.`.`.`.C.T T I 6.`.`.`.T.*.T T Y F m D v * . # $ # #         ",
"      # # O . . u q.q.q.| Q T T T T T T T T T T !  .X.X.q.S.`.`.`.`.`.`.`.Z.T I I 5.`.`.`.E.*.T T Y D m D v * . # # # #         ",
"      # # # . . u q.q.q.{ Q T T T T T T T T T T ~ e.t.t.t.Y.`.`.`.~.K.L.L.m.5.5.4.g.U.U.U.N.~ T T Y F m n c * . # # # #         ",
"      # # O . . u q.q.q.{ Q T T T T T T T T T T =.E.`._.`.`.`.`.`.A.J J m p.`._.`.I.*.~ ~ ~ T T T Y F m m v 1 . # # # #         ",
"      # # # @ . u q.q.q.| Q T T T T T T T T T T -.E.`.`.`.`.`.`.`.j.n n M i.`.`.`.U.T T T T T T T Y D m m v * . # # # #         ",
"      # # O . . u q.q.q.{ Q T T T T T T T I I T =./.`.`.`.`.`.`.`.j.n n n i.`.`.`.U.~ T T T T T T Y D m m v * . # # # #         ",
"      # # o . . u q.q.q.| Q T T T T T T ~ ;.:.;.4./.`.`.`.(.E.T.^.k.n.n.n.d.E.E.E.C.T T T T T T T Y F m m v * . # # # #         ",
"      # # # . . u q.q.q.{ Q T T T T T I ;.T.(.(.(.`.`.`.`.z.=.=.=.z.(.(.(.C.=.=.=.*.T T T T T T T Y F m n v * . # # # #         ",
"      # # @ . . u q.q.q.{ Q T T T T T I ;.(.`.`.`.`.`.`.`.h.I T I z.`.`.`.Z.T Y T T T T Q T T T T Y F m m c * . # # # #         ",
"      # # . . . u q.q.q.| Q I T T I T I ;.(.`.`.`.`.`.`.`.h.I I Y z.`.`.`.Z.T T T T T T T T T T T Y F n m v * . # # # #         ",
"      # # . . . u q.q.q.| Q T T ~ =.=.=.4.(.`.`.`.(.(.(.(.l.=.=.*.z.(.(._.N.T T T T T T T T T T T Y F n m v * . # # # #         ",
"      # # O o . u q.q.q.{ Q T T >.T./.E./.`.`.`.(.6.:.:.:.M./.E.^.b.;.:.:.-.T T T T T T T T T T T Y D n m v 1 . # # # #         ",
"      # # # @ . k q.q.q.| Q T I 3._.`.`.`.`.`.`.(.;.I T T N.`.`.`.M.I T T T T T T T T T T T T T T Y F m m v * . # # # #         ",
"      # # # # . u q.q.q.| Q T I 3._.`.`.`.`.`.`.(.;.T T T N.`.`.`.M.T T T T T T T T T T T T T T T Y F m m v * . # # # #         ",
"      # # # # @ k q.q.q.| T T I 3._.`.`.`.`.`.`.(.;.T T T N.`.`.`.M.T T T T T T T T T T T T T T T Y F m n v < . # # # #         ",
"      # # # $ # 7 N N N O.x.M.M.Z.`.`.`.(.M.l.l.z.M.M.M.M.z.l.l.z.4.T T T T T T T T T T T Y L L L F w 6 6 6 & # # # # #         ",
"      # # # # # # @ @ . s _.`.`.`.`.`.`.E.=.I I =./.`.`.`.h.I T T T T T T T T T T T T T T U D n n c & . @ # # # # # # #         ",
"      # # # # # # # # # s _.`.`.`.`.`.`./.-.I I =.E.`.`.`.h.T T T T T T T T T T T T T T T U D D m x = @ # # # # # # # #         ",
"      # # # # # # # # @ s `.`.`.`.`.`.`./.=.I I =./.`.`.`.l.I T T T T T T T T T T T T T Q U D n D c = # # # # # # # # #         ",
"      $ # # # # # # # @ a y.y.y.u.D.D.D.F.h.g.g.l.N.C.N.C.4.T T T T T T T T T T T Y P L P F f g g d > @ # # # # # # # #         ",
"      # # # # # # # # # @ # X X 9 9.q.q.r.).`.`.(.;.T T T T T T T T T T T T T T T U m m D z + @ @ # $ # # # # # # # # #         ",
"      # # # # # # # # # # # # X 9 ..q.X.r.).`.`.(.:.I T T T T T T T T T T T T T T P m m n l + @ # # # # # # # # # # # #         ",
"      # # # # # # # # # # # # # 7 o.q.q.r.).`.`.(.:.I Q T T T T T T T T T T T T T U m m D l $ # # # # # # # # # # $ # #         ",
"      # # # # # # # # # # # # # $ i / / 7.c.G.G.c.&.P P P P P P U P P P P P P P U H z j j g & # # $ # # # # # # # # # #         ",
"      # # # # # # # # # # # # # # # % % % ; : : > x D D m D m D n D D m D m m D m z $ # # $ # # # # # # # # # $ # # # #         ",
"      # # # # # # # # # # # # # # # # # $ # @ . = l D M M m n D m D M m m n m m m j @ @ # # # # # # # # # # # # # # # #         ",
"      # # # # # # $ # # # # $ # # # # # # # # @ = x D D n D D n D n D m m D m m m z $ # # # # # # # # # # # # # # # # #         ",
"      # # $ # # # # # # # # # # # # # $ # # # # & f x l l l l l l l l x l l l l x g $ # # # # # # # # # # # # # # # # #         ",
"      # # # # # # # # # # # # # # # # # # # # # @ & & & & & & & & & % & & & & & & $ # # # # # # # # # # # # # # $ # # #         ",
"      # # # # # # # # # # # # # # # # # # # # # # # @ # o @ @ # @ @ @ @ @ # @ # # # # # # # # # $ # # # # # # # # # # #         ",
"      # # # # # # # # $ # # # # # # # # # # # # # # # # # # # # # # # # # # # # # # $ # # # # # # # # # # # # # # # # #         "
};
