/* XPM */
static char *_f4352401d784a3cdb3bcbb76ea2c5e8cDeQT82EoEKziUe0[] = {
/* columns rows colors chars-per-pixel */
"64 64 235 2 ",
"   c #060405",
".  c #0B0605",
"X  c #0F0806",
"o  c #0A0708",
"O  c #120705",
"+  c #130906",
"@  c #1B0B06",
"#  c #150B09",
"$  c #1A0D0A",
"%  c #1E110B",
"&  c #220D05",
"*  c #230D09",
"=  c #290D06",
"-  c #241006",
";  c #2A1206",
":  c #24140D",
">  c #29160E",
",  c #26180E",
"<  c #2B190E",
"1  c #321B0E",
"2  c #3D1A0D",
"3  c #351509",
"4  c #241610",
"5  c #2A1710",
"6  c #2C1A11",
"7  c #331D12",
"8  c #3A1E12",
"9  c #331711",
"0  c #362113",
"q  c #3D2214",
"w  c #3F2618",
"e  c #372019",
"r  c #35200F",
"t  c #431B0C",
"y  c #431F12",
"u  c #49230D",
"i  c #432414",
"p  c #4B2515",
"a  c #4D2A16",
"s  c #422619",
"d  c #45291B",
"f  c #4D2C1B",
"g  c #472818",
"h  c #522313",
"j  c #532B15",
"k  c #522D1B",
"l  c #5A2D19",
"z  c #54321D",
"x  c #5B341C",
"c  c #5B3217",
"v  c #552913",
"b  c #642C18",
"n  c #63341D",
"m  c #623A1E",
"M  c #69331A",
"N  c #74351A",
"B  c #553321",
"V  c #5B3522",
"C  c #5D3923",
"Z  c #5A3E2B",
"A  c #4E3123",
"S  c #623621",
"D  c #633C24",
"F  c #6C3D24",
"G  c #643D29",
"H  c #6A3E29",
"J  c #6A3623",
"K  c #723E23",
"L  c #7A3D24",
"P  c #6B4224",
"I  c #66422B",
"U  c #6C432B",
"Y  c #69452B",
"T  c #744126",
"R  c #7A4325",
"E  c #74442B",
"W  c #7B472B",
"Q  c #734A2D",
"!  c #7D4A2D",
"~  c #7B4827",
"^  c #6D4932",
"/  c #694935",
"(  c #744C32",
")  c #7B4C33",
"_  c #744F39",
"`  c #734732",
"'  c #7C5334",
"]  c #7A543A",
"[  c #7A563A",
"{  c #79512F",
"}  c #7D5941",
"|  c #82381E",
" . c #843E21",
".. c #83452A",
"X. c #844B2C",
"o. c #8B4D2C",
"O. c #894528",
"+. c #934C2C",
"@. c #964D2A",
"#. c #8C512E",
"$. c #85522F",
"%. c #94522E",
"&. c #834D31",
"*. c #8B4C31",
"=. c #835335",
"-. c #8B5333",
";. c #845836",
":. c #82553A",
">. c #8A553A",
",. c #855C3B",
"<. c #8A5D3C",
"1. c #925533",
"2. c #9B5432",
"3. c #955936",
"4. c #9A5B36",
"5. c #935B3B",
"6. c #9B5E3A",
"7. c #975639",
"8. c #A25C3A",
"9. c #A15836",
"0. c #8B613F",
"q. c #9D613B",
"w. c #9C6037",
"e. c #A3643C",
"r. c #A5693E",
"t. c #AA653D",
"y. c #885D42",
"u. c #925E41",
"i. c #8D6442",
"p. c #8A644A",
"a. c #926343",
"s. c #936946",
"d. c #946C49",
"f. c #986D4A",
"g. c #9A6746",
"h. c #9B724E",
"j. c #97704A",
"k. c #9D7452",
"l. c #9A7657",
"z. c #926B51",
"x. c #A46642",
"c. c #AB6542",
"v. c #A56943",
"b. c #AC6D43",
"n. c #AC6E48",
"m. c #A56D4C",
"M. c #B26C45",
"N. c #B26E4A",
"B. c #AD7145",
"V. c #AD734A",
"C. c #A2754D",
"Z. c #B17246",
"A. c #B3754B",
"S. c #B57A4D",
"D. c #B87B4E",
"F. c #BA764D",
"G. c #A37A55",
"H. c #A47D5A",
"J. c #AB7A56",
"K. c #B57C53",
"L. c #BA7D53",
"P. c #B67A54",
"I. c #977763",
"U. c #A77E65",
"Y. c #AB835D",
"T. c #A6805C",
"R. c #BA8155",
"E. c #BC855B",
"W. c #BE895E",
"Q. c #B68157",
"!. c #9E8168",
"~. c #A58363",
"^. c #AB8563",
"/. c #AD8965",
"(. c #AC8B6B",
"). c #AB856C",
"_. c #BE8A62",
"`. c #B28E6B",
"'. c #B38864",
"]. c #B6926D",
"[. c #AA8A74",
"{. c #B18E73",
"}. c #B28E78",
"|. c #B49473",
" X c #B99977",
".X c #B5967A",
"XX c #B6997B",
"oX c #BA9B7C",
"OX c #B79775",
"+X c #BAA07F",
"@X c #C0845A",
"#X c #C18B5F",
"$X c #C18C63",
"%X c #C48F69",
"&X c #C3936B",
"*X c #C39269",
"=X c #C69672",
"-X c #B69D84",
";X c #BA9E83",
":X c #BC9F89",
">X c #AD9784",
",X c #BCA285",
"<X c #B7A28B",
"1X c #BCA48B",
"2X c #BCA58A",
"3X c #BEAA93",
"4X c #BCA792",
"5X c #C19E85",
"6X c #C2A385",
"7X c #C1A58A",
"8X c #C2A98E",
"9X c #C9A482",
"0X c #C2AC94",
"qX c #C4AE99",
"wX c #C6AB97",
"eX c #C5B09B",
"rX c #CAB39D",
"tX c #C4B097",
"yX c #D5B799",
"uX c #C4AFA3",
"iX c #C5B2A1",
"pX c #CAB3A3",
"aX c #CEBDAC",
"sX c #CAB8A6",
"dX c #D2BCA8",
"fX c #CCBEB3",
"gX c #D2BEB3",
"hX c #D6C2AD",
"jX c #CFC2BA",
"kX c #D4C5BB",
"lX c #D5C9BE",
"zX c #D4C4B6",
"xX c #D4CBC3",
"cX c #DBCEC5",
"vX c #DCD0C7",
/* pixels */
", , , , 4 4 4 4 4 , , , , , , , , , , , , , , > > > > > > > > > < < 7 s d A Z / / / / ^ ( ' ;.<.i.s.f.k.G.T.^./.`.|.|.XXXX-X-X-X",
"4 : : 4 4 4 : : 4 , , , , > > > : , > > > > > : > > > < < < > > , : ; < < 0 w A Z Y Y ( ' ;.<.i.g.f.k.G.T.Y.`.|.|. XoX;X2X2X2X:X",
": : : 4 4 4 , , , , 5 5 5 > > > > > , > > > > < 6 6 7 6 < < < < : > < < < < 7 i z ] [ ' ;.<.0.s.f.h.G.H.Y.'.].OX XoX,X1X1X1X1X<X",
": : : 4 4 4 , , , > 5 5 5 < < < 5 > , > > > < < 6 < < < > < < : , > > < < < 7 7 q C y.s.a.<.a.f.h.G.T.Y.'.`.OX XoX,X1X1X4X1X1X<X",
", , 4 4 4 4 4 > > > > 5 5 5 5 5 > > > > < < < < ; i g i q q i q q q q q q 0 0 q s f U <.G.Y.s.h.C.H.Y.'.`.|. XoX6X7X8X0X3X4X1X<X",
", , , , , , , > > > > > 5 5 5 5 > > > > < > - ; D u.a.5.-.&.&.&.W E F G S z g g f B D T f.9XXXk.G.Y.'.`.]. XoX,X6X8X0X0X0X3X1X1X",
", , , > > 5 4 > > > > > > 5 5 5 > > > < 5 : ; Q m.A.A.A.A.b.b.e.4.o.~ T F D x f f B D ' C.XXhX.XH.Y.'.`.|. XoX,X2X0X0X3X3X3X1X1X",
"4 5 > > > 5 > > > > > > > 5 5 5 > > 6 6 , * ` A.b.b.b.b.b.M.b.t.4.1.o...R K G z f z G ;.].6XrX7XY./.`.].|.oX,X7X0X0XqX3X0X3X3X1X",
", > > > > > > > 5 > > > > > > 5 > 5 6 6 - i v.b.b.b.b.b.t.M.M.b.t.4.1.#.o.! E V z z D s. XhXeX6X/./.`.|.XXoX6X7X0XeXeX0X0X3X3X4X",
": , , > > > > 5 > > > > > > > > > 6 7 > - U b.b.Z.Z.Z.Z.Z.b.Z.Z.b.e.4.4.1.-.W F z z V i.|.zXrX6X X/.].|.XX,X1X7X0XeXeX0X0X0X3X3X",
", , , , > > > > > > > > > < < < < 7 1 ; 2 u.Z.Z.A.F.F.A.A.A.A.A.Z.t.e.6.4.-.&.E D z B Q {.lXiX/.yXXX].|.oX,X7X8X0XeXeXtXqX0X0X3X",
", , , , , > > > > > > > > < < < 6 7 < ; x n.F.F.L.L.L.L.S.F.S.S.A.B.r.e.w.3.-.! P D V D l.lXaXk.6XsX|.XXoX,X7X0X0XeXeXeXqXqX0X3X",
", , , , , > > > 5 > 6 < < < < < 7 0 ; 8 E A.L.R.R.E.E.R.D.S.S.A.Z.A.b.t.e.4.1.-.W H V z ] gXfXl.Y.hX1XXX-X,X8X0XtXeXeXeXqXqX0X3X",
", > > : : , , > 6 6 6 6 < < 6 6 7 0 > f X.S.L.@XW.$X_.E.F.S.S.A.Z.A.V.r.e.4.1.&.W H S z Y iXlX~.C.dXsXXX-X,X8X0XeXeXeXeXeXqX0X0X",
", , > : : : , , 6 6 6 6 < < < 6 7 7 1 S o.S.R.W._._._.E.D.S.S.A.V.Z.V.t.e.w.1.X.W F D C C >XvX-XY.wXhX-X,X,X8X0XeXeXeXeXeXqXqX0X",
": : : : : , , , , < < < < < 6 7 r 1 q F %.A.E.W.$X_.W.E.D.S.A.S.A.V.Z.v.w.4.1...E U G D z I.cX0XOXeXkX1X,X7X0XeXeXeXeXeXeXeXqX0X",
": : : : 4 , , > , < < < < < 6 7 0 1 k ! 3.A.E.W.$XW.W.E.K.S.Z.A.A.A.A.b.r.4.1.X.E H G D C p.lXaX+XeXlXqX,X0X0XeXeXeXeXeXeXeXqX0X",
": : : : 4 : : , > > < < < < 7 8 8 8 U 6.e.Z.E.W._.W._.W.R.S.Z.A.S.S.S.A.b.w.1.&.E H D D C p.lXjX0XrXlXeX2X3X0XqXeXeXeXeXeXeXqX0X",
": : : : 4 : : : , , > > > < 7 0 7 8 :.n.b.S.E.W.$X$X*X%XW.K.A.A.S.S.K.A.b.q.3.&.E H G D D l.xXfX0XaXxXiX1X0X0XeXeXeXeXeXeXeXqXqX",
": : : : 4 , : : > : > , , < 7 8 7 i ;.n.Z.S.E.$X*X*X*X&X*X_.K.S.S.D.R.S.B.q.3.-.E U U D U }.cXfX1XhXxXiX1X0XtXeXeXeXeXeXeXeXqXqX",
": : : : 4 : : : , : > < < 6 6 1 7 i >.b.Z.D.R._.&X&X&X*X_.$XW.Q.D.P.W.P.V.r.3.>.&.( U G ] 7XvXjX4XzXxX3X,X0XtXeXeXeXeXeXeXeXqXqX",
": : % : : : , : , , > < < < < < < i >.b.Z.w.o.! =.a.J.Q._.$XE.K.Q.V.$XK.V.r.$.E U G D D :.5XxXxXqXzXlX4X2X3XeXeXeXeXeXeXeXeXeXeX",
"% % % : : : : : : : > 6 < 6 > > - i <.t.e.5.>.! T M n K -.g.x.K.W.q.K.J.5.~ m x z C D D Y ).zXxXeXkXfX<X1X3XqXeXeXeXeXeXeXeXeXeX",
"% % % % : : : : : , , < 6 6 > > - f 5.4.4.P._._._.'.g.&.~ #.4.E.$X1.X.) n l m ' a.d.a.' Y p.wXcXeXaXsX<X1X0XqXeXeXeXeXeXeXeXeXeX",
"% % % : : : : - : , > 6 6 6 < > - B 6.4.b.W._.J.h.' E X.1.v.K.&X$X3.x i i a V ( ) Q ( ( ` [ l.lXeXeXiX,X1X0XqXeXeXeXeXeXeXeXeXeX",
"% % % : : : : : : , < 6 6 < < : - V q.t.A.x.T ) H p S R 1.A.W.&X$Xq.x q w f G ] E D U U I Y [ gXiX,X0X<X1X0XqXeXeXeXeXeXeXeXeXeX",
"% % % : : : : : , , , 6 6 6 6 > > D q.A.A.x.v.J.m.u.7.%.e.L.E.&XW.4.n i w A ( a.g.u.) Y I I _ pXdX,X1X,X1X0X0XeXeXeXeXeXeXeXeXeX",
"$ $ % % % % : : : , , 6 6 6 : : > G q.Z.S.@X%X%X&XE.A.b.r.L.W.$XR.6.J i s A U >.g.5.( U U ^ ] qXaX0X8X,X1X3X0XeXeXeXeXeXqXeXeXeX",
"$ $ $ % % % % : : , > < 6 - $ : : C 6.Z.L.W.*X&X=X&X#XS.R.$X#X$XL.6.n i s d C W -.5.>.) ` ( :.rXaX0X0X;X1X3X0XeXeXeXeXeXeXeXeXeX",
"$ $ $ % % % % : : 4 > < 6 - $ : - z 6.A.R._.*X&X&X_.R.W.&X$X$X$X#Xq.c i s d B H ! -.>.=.) ) :.pXpX{.:X1X;X1X0XqXeXeXeXeXeXeXeXeX",
"$ $ % % % % % : : , > < < > $ : - a 5.Z.R._.$X*X*X_._.=X&X$X$X$X#Xu.l w s d f D E ! =.=.&.) ] pX0X~.U.;X;X1X0XqXeXeXeXeXeXeXqXeX",
"$ $ $ $ $ % % : : , 5 < < 6 : : - i -.b.D.W.&X&X&X*X*X&X&X$X$X$X@Xq.J s s s f V H ` ) ) ) Y _ pXiX.X).oX-X1X0X0XqXeXeXeXeXeXeXeX",
"# $ $ $ $ % % % : 4 5 < > 6 5 : - i ! r.S.R.$X&X&X*X].&X&XW.W.$X@Xx.K g w i g B G E E E U I _ uXcX[.{.oXXX;X1X0X0XqXeXeXeXeXeXeX",
"$ $ $ $ $ % % % : , > > > 5 6 6 - i ~ e.V.K._.&X&X&X].&X&XW.W.&X%XA.&.g s s s z C U U U G I _ uXvXI.H.OX|.oX,X1X0X0XeXeXeXeXeXeX",
"# # $ $ $ $ % % : : > , 6 6 6 7 e f R w.V.S._.*X&X&X*X_._.W.E.&X%XP.>.k d i s A C H H D G Y _ uXcX[.^.|.|.oX;X1X4X0XeXeXeXeXeXeX",
"# # $ $ $ $ % % : : , , 6 6 6 7 e g T 6.b.S.E.$X&X&X_.W.$XE.B.E.L.P.&.f s q g B G H G V / _ _ pXkX[.^.(.|.OXoX;X1X0X0X0XeXeXeXeX",
"# + # # $ $ $ $ % 4 , , < 6 6 7 7 8 F 5.n.A.K._.*X*X_.$X$XE.K.K.V.q.K i q w f B G U D z ^ ] } pXaX!.H.^.(.|..XoX,X7X0X0XeXeXeXeX",
"+ + # # # $ $ $ % 4 : , < 6 6 7 7 7 S -.v.A.P.E.$X$X_.W.E.R.R.E.4.6.u.k i f B B C U G B / ] p.1XqXl.H.Y./.`.|.XX-X1X1X0X0XeXeXeX",
"+ + # # # # # # $ % : , > 6 6 6 7 7 z o.r.Z.D.E.W.R.R.K.K.K.K.E.1.m.P.W G C V B k B G B I ( h./.{.h.G.H.~.(.{.|.XX-X1X1X0X0XqX0X",
"+ + + # # # $ $ $ $ : , > < < 6 7 6 g X.w.V.S.R.Q.S.S.K.K.K.Q.Q.4.b.A.5.W H x k f g z z I U f.f.k.f.k.G.H.^./.`.|.XX;X1X1X0X0X0X",
"+ + + + + # $ $ $ % : , > > < 6 6 6 q K 4.b.S.L.S.V.V.S.K.L.E.E.V.e.4...P x k f f i f z ^ ^ i.<.s.s.f.k.G.H.^./.(.|.XX-X,X1X1X1X",
"X + + + + # # # $ $ : : , , > > 6 6 < B -.r.S.R.A.B.x.n.n.e.e.6.2.O.N b j j a g g f G z / ^ ;.;.0.i.s.f.k.G.H.Y.^.`.|..XXX-X-X-X",
"X X + + + # # # $ $ % % : , , > 5 6 > i E q.V.L.S.V.A.P.L.L.L.P.N.x.7.X.F B a i q B ` k I U y.,.,.<.i.a.f.h.k.G.T.^.(.(.{.|.|..X",
". X O + + + # # $ $ % % : : , > 6 6 5 7 n -.r.A.A.V.A.S.L.S.V.x.6.4.1.X.F k i i 8 f G k D ^ y.' ' [ ,.0.i.d.h.h.G.H.~.~./.(.(.(.",
"X + + + + + # # # $ % $ $ : : : , 4 4 5 f ! 4.r.B.A.A.A.A.A.v.4.%.1.#.o.K x f i q f f g V ] s.( ' ] [ ,.<.i.s.f.j.h.k.l.H.H.T.~.",
"X X + + + + # # # # # $ $ % : : : : 4 : i F 1.w.b.A.S.S.A.V.V.V.V.b.r.3.&.G V B g q 0 8 z ( H.' Q ( { ' ;.,.<.0.i.s.d.f.h.h.k.l.",
". X + + + + + # # # # $ $ $ : : : : : : 8 J ..6.e.b.A.L.L.S.L.E.R.S.n.q.$.F G V i 7 1 7 V z ).} U U Q Q ( ' ;.;.;.,.<.0.i.s.d.d.",
". X + + + + O + # # # $ $ $ $ % % % % % > S K #.4.w.n.A.L.D.K.R.K.B.v.4.! S B f 0 1 < d B a }.p.( ( P P E Q Q Q ' ' ' ;.,.0.0.i.",
". . X + + + O + + # # $ $ # # $ $ # # $ - V K R #.3.q.b.V.A.S.P.v.3.1.1.! n k i 7 1 q B i p }.I.z z.Q P P P P U Q Q Q Q { ' ' ;.",
". . X X X X + + + + # # # # # # # # # # ; S L R ..#.1.q.v.v.v.x.1.....! E D f 8 1 7 d q 1 i ).I.; p.<.G G D D P D D P U Q Q Q Q ",
"  . . . . X X + + + + # # # # # # # # @ ; J ....O.o.-.3.4.3.#.....~ F n x z i 7 7 7 1 < < q z.] = ^ g.z f k f C I D m m D D P P ",
". .       . X X X + + + + O + # # # # @ ; J O.+.O.#.3.3.1.-.#.o...T M l a i 8 1 7 7 < < ; 8 U f * g i.I i q 1 1 i B x n x n m m ",
"            . . X X X X X + + + # # # @ ; M O.2.2.2.4.6.6.4.-.o...T M k a p i 8 1 < ; < < 1 q < % - C I i 1 < > - ; 1 u a c c c ",
"          . . . . X . . X X + + + # $ @ ; M O.2.8.c.t.e.x.x.3.o.o.o.! F x k p 8 < < < ; > : > : $ $ 1 V i ; : : : - & & ; 2 k c ",
"          o o . . X X X X X X + + # # $ @ l O.@.9.t.M.N.x.e.6.3.3.q.4.-.T x i y q 8 1 > : : * $ $ $ $ 1 s 8 : : : - * & $ @ - 1 ",
"              . . . . X X X X X O + # # O p o.@.9.t.M.F.A.b.6.4.4.6.4.X.n h n J h 8 3 - - * $ @ $ $ $ $ : 7 < $ $ $ $ $ $ $ @ @ ",
"              . . . o . X X X X X + + # O 3 ..+.2.8.c.M.F.F.N.4.O.o...N M ....b h t 3 - * * @ @ @ @ # @ @ @ $ $ $ @ # + + # @ @ ",
"                      . . X X X X O + # # @ n +.@.9.t.M.N.F.F.A.8.N M ..4.+.N v y 2 ; * * $ @ @ # + + # + + + O # O # O O O O O ",
"    . .       .   . . . . X X X X O + # # # 2 ..+.2.9.t.b.N.A.F.K j =.3.+.N b h t 3 * @ @ @ @ @ * @ O O + + X O O O O X X X X . ",
"    .             .       . . . X O + O # + * b O.+.2.8.t.b.A.X.D k.C.R v b h t 3 = & @ @ @ @ @ ; @ O O X X X X X O X X . . .   ",
"                    . . . X . . . X + + + + # t L +.@.2.9.c.X.u ;.$.X.b 3 3 y 2 = * @ @ @ @ @ @ 3 @ X X . . X X # + . X . .     ",
"                    . . . X . . X X + + O + # 3 N O.O.@.9.*.3 ; j c u i ; @ * 8 ; $ @ @ @ @ # * 2 & X . . . . X X X     .       ",
"                          o o o . X + O X X O ; b |  .o.o.t & i u t ; - @ @ O * 9 & @ @ @ # O * 2 & . . .           .   .       ",
"                        . . o o . . X X X X X * h N L ..u & 2 h u D < O O O O O 9 3 @ @ @ O O = t & . .                         "
};
