/* XPM */
static char *_dc5167b5a85461becec7ab0346ce670M7wajXUqgkhqcf02[] = {
/* columns rows colors chars-per-pixel */
"64 64 246 2 ",
"   c #141A1D",
".  c #33222F",
"X  c #48273B",
"o  c #5F2234",
"O  c #6F1E2F",
"+  c #8B4346",
"@  c #A05E56",
"#  c #9F5D55",
"$  c #9F5E55",
"%  c #995550",
"&  c #742534",
"*  c #6E1E2F",
"=  c #6F1F30",
"-  c #38212D",
";  c #512638",
":  c #682938",
">  c #792B37",
",  c #8F4949",
"<  c #9A5751",
"1  c #7D313B",
"2  c #782A37",
"3  c #712131",
"4  c #131A1D",
"5  c #491D28",
"6  c #6D1F30",
"7  c #894245",
"8  c #9D5A53",
"9  c #9E5C54",
"0  c #995551",
"q  c #772936",
"w  c #6E1D2F",
"e  c #1E1D23",
"r  c #55262F",
"t  c #7A2C38",
"y  c #904949",
"u  c #80353D",
"i  c #782B37",
"p  c #452638",
"a  c #794548",
"s  c #9E5A53",
"d  c #9C5953",
"f  c #48273A",
"g  c #7C484A",
"h  c #A15E56",
"j  c #47273A",
"k  c #7C474A",
"l  c #A15E55",
"z  c #502538",
"x  c #804749",
"c  c #8B4446",
"v  c #8C4446",
"b  c #692031",
"n  c #894547",
"m  c #4B2639",
"M  c #7E474A",
"N  c #A05E55",
"B  c #7D484A",
"V  c #3F2535",
"C  c #794748",
"Z  c #171B1F",
"A  c #6A4340",
"S  c #A25F56",
"D  c #5E3C3C",
"F  c #915451",
"G  c #995953",
"H  c #9E5C55",
"J  c #925551",
"K  c #8F5350",
"L  c #372430",
"P  c #4F2B3C",
"I  c #7F494B",
"U  c #A15F56",
"Y  c #9B5A54",
"T  c #5E3441",
"R  c #4D2A3C",
"E  c #33222E",
"W  c #724147",
"Q  c #905450",
"!  c #985953",
"~  c #9D5C54",
"^  c #8A504F",
"/  c #552F3E",
"(  c #47263A",
")  c #49273B",
"_  c #4C293B",
"`  c #4E2A3C",
"'  c #965752",
"]  c #57303F",
"[  c #49283A",
"{  c #93524F",
"}  c #96514E",
"|  c #94524E",
" . c #90524F",
".. c #95514E",
"X. c #905350",
"o. c #854D4D",
"O. c #502C3C",
"+. c #4B293B",
"@. c #4D2B3C",
"#. c #632636",
"$. c #732332",
"%. c #722332",
"&. c #682535",
"*. c #572939",
"=. c #712333",
"-. c #6D2434",
";. c #512A3B",
":. c #4C2A3C",
">. c #36212E",
",. c #4E2639",
"<. c #4D2639",
"1. c #4C2639",
"2. c #602234",
"3. c #642133",
"4. c #522537",
"5. c #6E1F30",
"6. c #6A2031",
"7. c #481E29",
"8. c #6C2032",
"9. c #701F30",
"0. c #652133",
"q. c #6B2031",
"w. c #1A1C21",
"e. c #4D1E2A",
"r. c #711F30",
"t. c #612234",
"y. c #422637",
"u. c #5D2233",
"i. c #652132",
"p. c #552437",
"a. c #692032",
"s. c #632233",
"d. c #412536",
"f. c #5D2232",
"g. c #662132",
"h. c #542437",
"j. c #191B20",
"k. c #632133",
"l. c #4B1D28",
"z. c #562437",
"x. c #651E2E",
"c. c #621E2D",
"v. c #6C2031",
"b. c #6A1F2F",
"n. c #2D1B22",
"m. c #1C1A1F",
"M. c #641E2E",
"N. c #5D1E2C",
"B. c #221B20",
"V. c #121A1D",
"C. c #4B1D29",
"Z. c #711F31",
"A. c #261B21",
"S. c #161A1D",
"D. c #431D27",
"F. c #631E2D",
"G. c #581E2B",
"H. c #191A1E",
"J. c #1D1A1F",
"K. c #4F1D29",
"L. c #251B20",
"P. c #1B1A1E",
"I. c #421D27",
"U. c #611E2D",
"Y. c #661F30",
"T. c #631F2E",
"R. c #6A2032",
"E. c #5F202F",
"W. c #241C23",
"Q. c #1B1C21",
"!. c #1C1C21",
"~. c #1C1A1E",
"^. c #37212E",
"/. c #4C273A",
"(. c #38212E",
"). c #281D25",
"_. c #4A2638",
"`. c #4A2639",
"'. c #442638",
"]. c #432637",
"[. c #36222F",
"{. c #181B1F",
"}. c #181B20",
"|. c #151A1E",
" X c #191B1F",
".X c #1B1A1F",
"XX c #651F30",
"oX c #582233",
"OX c #3F2536",
"+X c #402536",
"@X c #402535",
"#X c #201D24",
"$X c #482333",
"%X c #601E2D",
"&X c #4B273A",
"*X c #49273A",
"=X c #392332",
"-X c #231E25",
";X c #6D1F31",
":X c #5C2335",
">X c #472739",
",X c #512538",
"<X c #682032",
"1X c #3C2331",
"2X c #6B2032",
"3X c #511E2C",
"4X c #151A1D",
"5X c #221E25",
"6X c #46273A",
"7X c #551E2A",
"8X c #241D25",
"9X c #4F2638",
"0X c #551E2B",
"qX c #2C1C23",
"wX c #682031",
"eX c #522538",
"rX c #692030",
"tX c #682132",
"yX c #4B2638",
"uX c #572436",
"iX c #521E2B",
"pX c #532537",
"aX c #4F2538",
"sX c #622233",
"dX c #3D2331",
"fX c #6D2031",
"gX c #5D2335",
"hX c #211D24",
"jX c #4F2435",
"kX c #161A1E",
"lX c #191C20",
"zX c #321D25",
"xX c #592336",
"cX c #5E2334",
"vX c #121A1C",
"bX c #2B1B22",
"nX c #671F2E",
"mX c #6B1F2F",
"MX c #241B20",
"NX c #3A1C25",
"BX c #582436",
"VX c #5E2234",
"CX c #111A1C",
"ZX c #2C1B22",
"AX c #6C1F2F",
"SX c white",
/* pixels */
"  . X o O + @ # # # # # # # # # # # # # # # # # # # # # # # # # # # # # # # # # # # # # # # # # # # # # # # # # # # $ % & * = = ",
"  - ; : > , @ # # # # # # # # # # # # # # # # # # # # # # # # # # # # # # # # # # # # # # # # # # # # # # # # # # # # < 1 2 3 = ",
"4 5 6 7 8 9 # # # # # # # # # # # # # # # # # # # # # # # # # # # # # # # # # # # # # # # # # # # # # # # # # # # # # # 8 0 q w ",
"e r t y @ # # # # # # # # # # # # # # # # # # # # # # # # # # # # # # # # # # # # # # # # # # # # # # # # # # # # # # # # 8 u i ",
"p a s 9 # # # # # # # # # # # # # # # # # # # # # # # # # # # # # # # # # # # # # # # # # # # # # # # # # # # # # # # # # # 8 d ",
"f g h # # # # # # # # # # # # # # # # # # # # # # # # # # # # # # # # # # # # # # # # # # # # # # # # # # # # # # # # # # # # # ",
"j k l # # # # # # # # # # # # # # # # # # # # # # # # # # # # # # # # # # # # # # # # # # # # # # # # # # # # # # # # # # # # # ",
"z x @ # # # # # # # # # # # # # # # # # # # # # # # # # # # # # # # # # # # # # # # # # # # # # # # # # # # # # # # # # # # # # ",
"6 c @ # # # # # # # # # # # # # # # # # # # # # # # # # # # # # # # # # # # # # # # # # # # # # # # # # # # # # # # # # # # # # ",
"= v @ # # # # # # # # # # # # # # # # # # # # # # # # # # # # # # # # # # # # # # # # # # # # # # # # # # # # # # # # # # # # # ",
"= v @ # # # # # # # # # # # # # # # # # # # # # # # # # # # # # # # # # # # # # # # # # # # # # # # # # # # # # # # # # # # # # ",
"= v @ # # # # # # # # # # # # # # # # # # # # # # # # # # # # # # # # # # # # # # # # # # # # # # # # # # # # # # # # # # # # # ",
"= v @ # # # # # # # # # # # # # # # # # # # # # # # # # # # # # # # # # # # # # # # # # # # # # # # # # # # # # # # # # # # # # ",
"= v @ # # # # # # # # # # # # # # # # # # # # # # # # # # # # # # # # # # # # # # # # # # # # # # # # # # # # # # # # # # # # # ",
"= v @ # # # # # # # # # # # # # # # # # # # # # # # # # # # # # # # # # # # # # # # # # # # # # # # # # # # # # # # # # # # # # ",
"= v @ # # # # # # # # # # # # # # # # # # # # # # # # # # # # # # # # # # # # # # # # # # # # # # # # # # # # # # # # # # # # # ",
"= v @ # # # # # # # # # # # # # # # # # # # # # # # # # # # # # # # # # # # # # # # # # # # # # # # # # # # # # # # # # # # # # ",
"b n @ # # # # # # # # # # # # # # # # # # # # # # # # # # # # # # # # # # # # # # # # # # # # # # # # # # # # # # # # # # # # # ",
"m M N # # # # # # # # # # # # # # # # # # # # # # # # # # # # # # # # # # # # # # # # # # # # # # # # # # # # # # # # # # # # # ",
"j k l # # # # # # # # # # # # # # # # # # # # # # # # # # # # # # # # # # # # # # # # # # # # # # # # # # # # # # # # # # # # # ",
"f k l # # # # # # # # # # # # # # # # # # # # # # # # # # # # # # # # # # # # # # # # # # # # # # # # # # # # # # # # # # # # # ",
"f k l # # # # # # # # # # # # # # # # # # # # # # # # # # # # # # # # # # # # # # # # # # # # # # # # # # # # # # # # # # # # # ",
"f B l # # # # # # # # # # # # # # # # # # # # # # # # # # # # # # # # # # # # # # # # # # # # # # # # # # # # # # # # # # # # # ",
"V C h # # # # # # # # # # # # # # # # # # # # # # # # # # # # # # # # # # # # # # # # # # # # # # # # # # # # # # # # # # # # # ",
"Z A S # # # # # # # # # # # # # # # # # # # # # # # # # # # # # # # # # # # # # # # # # # # # # # # # # # # # # # # # # # # N N ",
"4 D F G # # # # # # # # # # # # # # # # # # # # # # # # # # # # # # # # # # # # # # # # # # # # # # # # # # # # # # # # # H J K ",
"  L P I U # # # # # # # # # # # # # # # # # # # # # # # # # # # # # # # # # # # # # # # # # # # # # # # # # # # # # # # N Y T R ",
"  E f W Q ! # # # # # # # # # # # # # # # # # # # # # # # # # # # # # # # # # # # # # # # # # # # # # # # # # # # # # ~ F ^ / ( ",
"  E ) _ ` I U N N N N N N N N N N N N N N N N N N N N N N N N N N N N N N N N N N N N N N N N N N N N N N N N N N N h ' ] R [ f ",
"  E ) f j W Q { } } } } } } } } } } } } } } } } } } } } } } } } } } } } } | K  .} } } } } } } } } } } } } } } } } ..X.o.O.( f f ",
"  E ) f f +.@.#.$.%.%.%.%.%.%.%.%.%.%.%.%.%.%.%.%.%.%.%.%.%.%.%.%.%.%.%.$.&.` *.=.%.%.%.%.%.%.%.%.%.%.%.%.%.%.%.%.-.;.:.f f f f ",
"  >.,.<.<.1.1.2.= = = = = = = = = = = = = = = = = = = = = = = = = = = = = 3.f 4.5.= = = = = = = = = = = = = = = = 6.z 1.<.<.<.<.",
"4 7.8.6.6.6.6.6 = = = = = = = = = = = = = = = = = = = = = = = = = = = = 9.0.f 4.5.= = = = = = = = = = = = = = = = 5.q.6.6.6.6.6.",
"w.e.r.= = = = = = = = = = = = = = = = = = = = = = = = = = = = = = 5.6.6.q.t.f 4.5.= = = = = = = = = = = = = = = = = = = = = = = ",
"y.u.9.= = = = = = = = = = = = = = = = = = = = = = = = = = = = = 9.0.<.1.1.m j 4.5.= = = = = = = = = = = = = = = = = = = = = = = ",
"f 2.9.= = = = = = = = = = = = = = = = = = = = = = = = = = = = = 9.i.,.<.<.<.<.p.a.q.= = = = = = = = = = = = = = = = = = = = = = ",
"f 2.9.= = = = = = = = = = = = = = = = = = = = = = = = = = = = = = 5.q.q.q.q.q.s.1.p.5.= = = = = = = = = = = = = = = = = = = = = ",
"d.f.9.= = = = = = = = = = = = = = = = = = = = = = = = = = = = = = = = = = = 9.g.<.h.a.q.= = = = = = = = = = = = = = = = = = = = ",
"j.e.r.= = = = = = = = = = = = = = = = = = = = = = = = = = = = = = = = = = = = 5.q.k.1.p.5.= = = = = = = = = = = = = = = = = 9.9.",
"4 l.r.= = = = = = = = = = = = = = = = = = = = = = = = = = = = = = = = = = = = = 9.g.,.z.5.= = = = = = = = = = = = = = = = 5.x.c.",
"  l.r.= = = = = = = = = = = = = = = = = = = = = = = = = = = = = = = = = = = = = = 5.q.v.= = = = = = = = = = = = = = = = 9.b.n.m.",
"  l.r.= = = = = = = = = = = = = = = = = = = = = = = = = = = = = = = = = = = = = = = = = = = = = = = = = = = = = = = = 6 M.N.B.V.",
"  C.Z.= = = = = = = = = = = = = = = = = = = = = = = = = = = = = = = = = = = = = = = = = = = = = = = = = = = = = = = 9.x.A.m.S.  ",
"  D.F.b.= = = = = = = = = = = = = = = = = = = = = = = = = = = = = = = = = = = = = = = = = = = = = = = = = = = = = 6 M.G.m.4     ",
"  H.J.K.r.9.9.9.9.9.9.9.= = = = = = = = = = = = = 9.9.9.9.9.9.9.9.9.9.9.9.9.9.9.9.9.9.9.= = = = = = = = = = = = 9.M.L.P.  4 4 4 ",
"    4 I.F.U.U.U.U.U.U.Y.a.a.a.a.a.a.a.a.a.a.a.a.a.Y.U.U.U.U.U.U.U.U.U.U.U.U.U.U.U.U.U.T.b a.a.a.a.a.a.a.a.a.a.a.R.E.W.Q.!.!.!.!.",
"4 4 4 H.m.m.m.m.m.m.~.^./.m m m m m m m m m m m /.(.~.m.m.m.m.m.m.m.m.m.m.m.m.m.m.m.P.)._.m m m m m m m m m 1.1.m `.'.].].].].].",
"m.m.m.m.m.m.m.m.m.m.P.^./.m m m m m m m m m m m /.[.{.{.{.{.}.Z 4 |.{.{.{.{.{. X.Xm.P.)._.m m m m m m m m m f f m m 1.1.1.1.1.1.",
"U.U.U.U.U.U.U.U.U.U.U.XXa.a.a.a.a.a.a.a.a.a.a.a.6.oXOX+X@X@Xd.E   #XV +X@X+XOX$X%XU.U.T.b a.a.a.a.a.a.a.b 3.m 1.g.b a.a.a.a.a.a.",
"9.9.9.9.9.9.9.9.9.9.9.9.= = = = = = = = = = = = 9.t.1.&X*X*X) =X  -Xj *Xf *X&Xz.= 9.9.9.= = = = = = = = 9.6.1.<.q.9.= = = = = = ",
"= = = = = = = = = = = = = = = = = = = = = = = = = ;X6.:Xf f ) =X  -X>Xf j ,X<Xq.= = = = = = = = = = = = = b 1.<.q.= = = = = = = ",
"= = = = = = = = = = = = = = = = = = = = = = = = = = 9.t.1.1.<.1X  -X>X*Xm p.5.= = = = = = = = = = = = = = b 1.<.q.= = = = = = = ",
"= = = = = = = = = = = = = = = = = = = = = = = = = = = ;Xb b 2X3X4X5X6X,X<Xq.= = = = = = = = = = = = = = = b m <.q.= = = = = = = ",
"= = = = = = = = = = = = = = = = = = = = = = = = = = = = = = r.7X4X8X_.z.5.= = = = = = = = = = = = = = = = 6.9Xz <Xv.= = = = = = ",
"= = = = = = = = = = = = = = = = = = = = = = = = = = = = = = 9.0X4XqXwXq.= = = = = = = = = = = = = = = = = 5.6.g.z eXv.= = = = = ",
"= = = = = = = = = = = = = = = = = = = = = = = = = = = = = = 9.0X4XqXrXv.= = = = = = = = = = = = = = = = = = 9.6.9Xz tXv.= = = = ",
"= = = = = = = = = = = = = = = = = = = = = = = = = = = = = = r.7X4X8XyXuX5.= = = = = = = = = = = = = = = = = = 5.6.g.z ,Xq.= = = ",
"= = = = = = = = = = = = = = = = = = = = = = = = = = = = = 6 v.iX4X5X6XpX5.= = = = = = = = = = = = = = = = = = = 9.q.aXz q.= = = ",
"= = = = = = = = = = = = = = = = = = = = = = = = = = = = 9.sX,.dX  -Xj pX5.= = = = = = = = = = = = = = = = = = = = 5.6.6.5.= = = ",
"= = = = = = = = = = = = = fXq.6 = = = = = = = = = = = 6 q.gXX =X  hX+XjX5.= = = = = = = = = = = = = = = = = = = = = = = = = = = ",
"= = = = = = = = = = = = = :X1.2.9.= = = = = = = = = 9.t.<.m *X=X|.kXlXzX6 = = = = = = = = = = = = = = = = = = = = = = = = = = = ",
"= = = = = = = = = = = 5.;XxX*Xo 9.= = = = = = = = 5.6 cXj f *X=X|.  vXbXnXmX= = = = = = = = = = = = = = = = = = = = = = = = = = ",
"= = = = = = = = = = = gX9XgXtXv.= = = = = = = = 9.sXz <.f f *X=X|.    H.MXNX6 = = = = = = = = = = = = = = = = = = = = = = = = = ",
"= = = = = = = = = = = BX6XVX9.= = = = = = = = = 9.o j f f f *X=X|.      CXZXAX= = = = = = = = = = = = = = = = = = = = = = = = = "
};
