/* XPM */
static char *result[] = {
/* columns rows colors chars-per-pixel */
"64 64 201 2 ",
"   c #211313",
".  c #211313",
"X  c #211313",
"o  c #311F19",
"O  c #25201F",
"+  c #2B221F",
"@  c #34221C",
"#  c #3B261B",
"$  c #3B291C",
"%  c #36281C",
"&  c #291F20",
"*  c #261F20",
"=  c #262121",
"-  c #2A2325",
";  c #2C2629",
":  c #2D292C",
">  c #292828",
",  c #3E2721",
"<  c #30272C",
"1  c #312A2D",
"2  c #362924",
"3  c #35312D",
"4  c #2F2C30",
"5  c #322C32",
"6  c #363236",
"7  c #363138",
"8  c #3B3733",
"9  c #432B1B",
"0  c #4A2F1B",
"q  c #4C311B",
"w  c #54351A",
"e  c #5C3A1B",
"r  c #58381D",
"t  c #623D1B",
"y  c #452B23",
"u  c #482F26",
"i  c #4F342B",
"p  c #5A3C27",
"a  c #573828",
"s  c #453C35",
"d  c #4A3D35",
"f  c #453731",
"g  c #523F36",
"h  c #603728",
"j  c #643B2B",
"k  c #683A25",
"l  c #66411B",
"z  c #6C421B",
"x  c #6F481B",
"c  c #7A4F17",
"v  c #73461B",
"b  c #76491E",
"n  c #774B19",
"m  c #79521D",
"M  c #57402C",
"N  c #4C413D",
"B  c #5C4434",
"V  c #53453E",
"C  c #5D453A",
"Z  c #5B4A3C",
"A  c #6D422F",
"S  c #684628",
"D  c #74422E",
"F  c #7A432A",
"G  c #794A26",
"H  c #644236",
"J  c #6C4434",
"K  c #644A3C",
"L  c #6A493B",
"P  c #7B4631",
"I  c #754C31",
"U  c #7E4B35",
"Y  c #7F4F39",
"T  c #704D3D",
"R  c #7E5A32",
"E  c #71553B",
"W  c #7A523F",
"Q  c #7B5839",
"!  c #554541",
"~  c #5A4846",
"^  c #615541",
"/  c #6B534F",
"(  c #6F5F4A",
")  c #705753",
"_  c #725A57",
"`  c #745B59",
"'  c #786046",
"]  c #776950",
"[  c #814E1C",
"{  c #85511B",
"}  c #8C541B",
"|  c #90571E",
" . c #945A1D",
".. c #9E5F1F",
"X. c #A35F1B",
"o. c #9E601D",
"O. c #A3621D",
"+. c #AA661E",
"@. c #AD691D",
"#. c #A86A17",
"$. c #B46B1E",
"%. c #BB6E1C",
"&. c #AD701A",
"*. c #B77216",
"=. c #BB7415",
"-. c #B5721E",
";. c #BD721B",
":. c #B77A1F",
">. c #8B4B2E",
",. c #854C29",
"<. c #955C26",
"1. c #834A31",
"2. c #8D4F33",
"3. c #845B3C",
"4. c #89583B",
"5. c #9C5B3C",
"6. c #955836",
"7. c #A45B3A",
"8. c #AF5F3B",
"9. c #B25F39",
"0. c #9D6422",
"q. c #986327",
"w. c #866238",
"e. c #946437",
"r. c #A56320",
"t. c #AA6621",
"y. c #A56B23",
"u. c #AE6920",
"i. c #A46529",
"p. c #B16B21",
"a. c #B36B28",
"s. c #BA6E2D",
"d. c #B67122",
"f. c #BB7623",
"g. c #BD7A24",
"h. c #B97B29",
"j. c #B47229",
"k. c #A56138",
"l. c #B5643D",
"z. c #BB653E",
"x. c #B9693C",
"c. c #BA6B37",
"v. c #AE7731",
"b. c #C47A15",
"n. c #CC7D16",
"m. c #C2741B",
"M. c #C47A19",
"N. c #C97A19",
"B. c #C57C22",
"V. c #C07722",
"C. c #C57239",
"Z. c #8C5942",
"A. c #975C42",
"S. c #8F6441",
"D. c #996443",
"F. c #846451",
"G. c #877659",
"H. c #9F7F5D",
"J. c #977757",
"K. c #A36346",
"L. c #A96444",
"P. c #AD6748",
"I. c #B56641",
"U. c #B76946",
"Y. c #BC6942",
"T. c #B56B49",
"R. c #BC6D49",
"E. c #B96741",
"W. c #C36D45",
"Q. c #CD6E43",
"!. c #CC7046",
"~. c #C6724C",
"^. c #CC754C",
"/. c #D57245",
"(. c #DE7747",
"). c #DF7847",
"_. c #D37549",
"`. c #D4794E",
"'. c #DC7A4C",
"]. c #E07847",
"[. c #E07D4E",
"{. c #E37E50",
"}. c #BF8129",
"|. c #CE8216",
" X c #CC831D",
".X c #D38514",
"XX c #D78812",
"oX c #D98A13",
"OX c #D4871C",
"+X c #D3891B",
"@X c #DD921E",
"#X c #E2961E",
"$X c #EB9E1D",
"%X c #C68024",
"&X c #CA8524",
"*X c #CE8925",
"=X c #D58E23",
"-X c #DD9421",
";X c #D79023",
":X c #E09522",
">X c #A08261",
/* pixels */
"  . . . . . . . . . . . . . . . . . . . . . . . . . . . . . . . . . . . . . . . . . . . . . . . . . . . . . . . . . . . . . .   ",
"  . . . . . . . . . . . . . . . . . . . . . . . . . . . . . . . , @ @ & . . . . . . . . . . . . . . . . . . . . . . . . . . X   ",
"  . . . . . . . . . . . . . . . . . . . . . . . . . . . . . h 1.z.z.z.1.P k h o X . . . . . . . . . . . . . . . . . . . . . .   ",
"  . . . . . . . . . . . . . . . . . . . . . . . . . . . y 1./.(.(.(.].(.].(./.P X . . . . . . . . . . . . . . . . . . . . . .   ",
"  . . . . . . . . . . . . . . . . . . . . . . . . . . y 9.(.(.(.(.(.(.(.].(.]./.F o . . . . . . . . . . . . . . . X . . . . .   ",
"  . . . . . . . . . . . . . . . . . . . . . . . . . @ 7.].(.(.(.(.(.(.(.(.(.].]./.1.X X . . . . . . . . . . . . . . . . . . .   ",
"  . . . . . . . . . . . . . . . . . . . . . . . . . h (.(.(.(.(.(.(.(.(.(.(.(.(.(./.D . . . . . . . . . . . . . . . . . . . .   ",
"  . . . . . . . . . . . . . . . . . . . . . . . . . k ].(.(.(.(.(.(.(.(.(.(.(.(.(.(.l.@ . . . . . . . . . . . . . . . . . . .   ",
"  . . . . . . . . . . . . . . . . . . . . . . . . o 7.].].(.(.Y.1.A.Q.(._.].(.(.(.).Q.y . . . . . . . . . . . . . . . . . . .   ",
"  . . . . . . . . . . . . . . . . . . . . . . . y P >.9.z./.(.U < 5 g Y 5.!.(.(.).].Q.y . . . . . . . . . . . . . . . . . . .   ",
"  . . . . . . o . . . . . . . . . . . . . . . . P ~.l.2.>.>.>.k 3 5 ; 4 8 B 5./.L.4.1.3 O . . . . . . . . . . . . . . . . . .   ",
"  . . . . . . . . . . . . . . . . . . . . . . . j W._._.(.W.z.k H.^ d 8 : > J x.f 4 : : : . . . . . . . . . . . . . . . . . .   ",
"  . . . . . . . . . . o . . . . . . . . . . . . X D !.'.'.'.'.6.H.K ' >Xu a F F s N Z - + . . . . . . . . X . . . . . . . . .   ",
"  . . . . . . . . . . . . . . . . . . . . . . . . . 2.{.[.[.[._.D.' G.G.5.W.Y.>.] G.J.X . . . . . . . . . . . . . . . . . X .   ",
"  . . . . . . . . . . . . . . . . . . . . . . . . . D {.[.[.[.[.'.W.7.5.Y.U.R.R.4.Q 3., . . . . . . . . . . . . . . . . . . .   ",
"  . . . . . . . . . . . . . . . . . . . . . . . . . P [.[.[.[.[.[.{.'.T.P.U.~.~._._.^.u . . . . . . . . . . . . . . . . . . .   ",
"  . . . . . . . . . . . . . . . . . . . . . . . . . D [.[.[.{.[.[.{.Q.' Z.L.K.~.{.{.^.y . . . . . . . . . . . . . . . . . . .   ",
"  . . . . . . . . . . . . o . . . . . . . . . . . . i Y.[.{.{.'.[.{.A.7 d L C W '.{.^.u . . . . . . . . . . . . . . . . . . X   ",
"  . . . . . . . . . . . . . . . . . . . . . . . . . . A !.`.[.{.[.[.Z.g D.^ Z.C `.`.6.o . . . . . . . . . . . . . . . . . . .   ",
"  . . . . . . . . . . . . . . . . . . . . . . . . . . h E.E.W._.[.{.6./ W.I.K.K U.j o . . . . . . . . . . . . . . . . . . . X   ",
"  . . . . . . . . . . . . . . . . . . . . . . . . @ r ,.c.I.E.E.I.!.4.s L L B i y . . . . . . . . . X . . . . . . . . . . . .   ",
"  . . . . . . . . . . . . . . . . . . . . . . . % n +.t.a.c.Y.U.2.F a ; < < & . . . . . . . . . . . . . . . . . . . . . . . X   ",
"  . . . . . . . . . . . . . . . . . . . . X 0 n :.g.u.@.f.f.j.C.j.g.q.y . . . . . . . . . . . . . . . . . . . . . . . . . . .   ",
"  . . . . . . . . . . . . . . . . . . X o S B.:X$X@XB.$.@.f.f.C.V.i.E N < & . . . . . . . . . . . . . . . . . . . . . . . . .   ",
"  . . . . . . . . . . . . . . . . . X t X.V.B.-X$X$X-X|.;.p.f.a.4.K ! s ! M $ O . . . . . . . . . . . . . . . . . . . X . . .   ",
"  . . . . . . . . . . . . . . . . @ v b.oXOXn.N.:X$X-XOX.Xj.D.3.! ! ! M L h.o.+ . . . . . . . . . . . . . . . . . . . . . . .   ",
"  . . . X . . . . . . . . . . . # q. X@X#XoXoXM.&X;X*X*Xh.F.` ` ~ N S <.p.B.&.% . . . . . . . . . . . . . . . . . . . . . . .   ",
"  . X . . . . . . . . . . . . @ <.B.B.&X:X@XN.m.f.&X&Xv.] ` ) _ _ Q -.M.N.V.:.l . . . . . . . . . . . . . . . . . . . . . . .   ",
"  . . . . . . . . . . . . . . 9 g.M.B.&X=X*Xm.m.a.&X}.E ! / ) ) S.h.N..XoXN. X*.0 . . . . . . . . . . . . . . . . . . . . . .   ",
"  . . . . . . . . . . . . . . o y.&X%XB.B.m.n.n.;.}.' ! N Z / e.B.B.n.XXoX.X|..X} o . . . . . . . . . . . . . . . . . . . . .   ",
"  . . . . . . . . . . . . . . 9 r.g.g.f.B..X.Xn.d.R ! N N Z e.|.oX*XOXXXXX.Xm.oXn.{ . . . . . . . . . . . . . . X . . . . . .   ",
"  . . . . . . . . . . . . . . 9 +.p.;..XXXoX.Xp.R ! ! N B #.XXoXoX&X&XoXoX.X:..XXXb.9 o . . . . . . . . . . . . . . . . . . .   ",
"  . . . . . . . . . . . . . . w $.%.n.oXoXoXoX.XR N N B @.XXoXoXoX&X&XoXoXoXM.n.M.n.x . . . . . . . . . . . . . . . . . . . .   ",
"  . . . . . . . . . . . . . . [ m.N..XoXoXoXoXoX:.V B &.XXoXoXoXoXOX XoXoXoXM.;.M.XX#.e o . . . . . . . . . . . . . . . . . .   ",
"  X . . . . . . . . . . . . o  ..XoXoXoXoXoXoXoXb.S O.XXXXXXoXoXoX XN.oXXXXXM.n..X|..X.Xc . . . . . . . . . . . . . . . . . .   ",
"  . . . . . . . . . . . . o n b.oXXXoXoXoXoXoX.X=.o.*.|..XXXXXXX.XB.g.|.|.|.$.;.n.n..XoX#.o . . . . . . . . . . . . . . . . .   ",
"  . . . . . . . . . . . . o X.m.n.n.n.n.n.n..Xb.d.p.$.$.;.M.;.M.f.f.p.$.$.p.@.M.oXoXoXoX.Xn . . . . . . . . . . . . . . . . .   ",
"  . . . . . . . . . . . o w m.n.n.XXoXoX.XXXn.;.t.u.u.u.p.t.@.p.V.d.p.t.O.O.-..Xn.n.n.N..X%.# . . . . . . . . . . . . . . . .   ",
"  . . . . . . . . . . . t b.XXXXoXn.oXXXXXoXoX=.} u.p.u.p.$.$.g.f.p.u.t.e b %.;.%.%.%.%.%.#.9 . . . . . . . . . . . . . . . .   ",
"  . . . . . . . . . . o #.XXm.m.N.N.m.N.n..XXXM.y.@.$.$.p.p.p.p.%.d.%.$.x 9 o.%.p.t.t.@.} # . . . . . . . . . . . . . . . . .   ",
"  . . . . . . . . . . X [ m.m.%.m.%.%.%.%.m.=.{ O.@.$.%.%.$.$.%.m.m.%.%.| @ 0 } i.k.k.6.y * . . . . . . . . . . . . . . . . .   ",
"  . . . X . . . . X . . @ } %.%.$.u.a.a.O.t q 9 r.p.u.p.p.t.+.$.%.%.%.m.b.c X @ j J i u < & . . . . . . . . . . . . . . . . .   ",
"  . . . . . . . . . . . . @ } a.9.Y.z.t.v . . # r.t.d.N.M.+.| } } ..m.n.oX=.0 . ; ; > > < ; . . . . . . . . . . . . . . . . .   ",
"  . . . . . . . . . . . . . @ P j J H p % . . 9 X.t.M.oX.X..# X X v %.N.oX.Xl . ; ; ; 4 5 & . . . . . . . . . . . . . . . . .   ",
"  . . . . . . . . . . . . . ; : > - ; > + . . # ..%..XoXn.[ o . . 0 X.%..XoX#.# . ; 4 5 5 5 & . . . . . . . . . . . . . . . .   ",
"  . . . . . . . . . . . . . & . - ; - & . . . 9 ..%..X.Xb.w . . . . w +.N..X|.t * 4 : 5 4 5 < * . . . . . . . . . . . . . . .   ",
"  X . . . . . . . . . . . . . - 5 7 5 ; X . . r X.%.m.N.X.9 . . . . o <.%.m.n.{ & 4 ; ; : : ; . . . . . . . . . . . . . . . .   ",
"  . . . . . . . . . . . . . . 5 7 7 7 5 5 - . v X.+.$.m.} . . . . . . t m.$.m.+.2 & < 5 < : * * . . . . . X . . . . . . . . .   ",
"  . . . . . . . . . . . . . o 5 7 7 7 7 5 < o ,.+.+.%.m.k o . . . . . t $.+.%.X.. . O . O . . . . . . . . . . . . . . . . . .   ",
"  . . . . . . . . . . . . . & 5 7 5 7 7 1 & 0 X.+.%.m.X.9 . . . . . . t X.+.%.{ . . . . . . . . . . . . . . . . . . . . . . X   ",
"  . . . . . . . . . . . . . . & - - ; < < . t +.$.m.%.v . . . . . . X t +.+.$.t . . . . . . . . . . . . . . . . . . . . . . .   ",
"  . . . . . . . . . . . . . . . . . . . . 9 <.$.$.m.| o . . . . . . . t +.%.*.M O . . . . . . . . . . . . . . . . . . . . . X   ",
"  . . . . . . . . . . . . . . . . . . . o v +.@.%.m.t X . . . . . . X - r t w : + O . . . . . . . . . . . . . . . . . . . . .   ",
"  . . . . . . . . . . . . . . . . . . X e ..$.%.m.X.# . . . . . . . & - O . O : > O . . . . . . . . . . . X . . . . . . . . .   ",
"  . . . . . X . . . o . . . . . . . . - 2 l o.+.X.r X . . . . . . X 5 ; - > : = O O O . O . . O . . . . . . . . . . . . . . .   ",
"  . . . . . . . . . . . . . . . . . X ; - - % % @ < & . . . . . . X 5 ; > : > O O > 2 + O O . . . . . . . . . . . . . . . . X   ",
"  . . . . . . . . . . . . . . . . . . 1 : - - - : : O . . O . . . . : : > > : - > 1 ; - . . . . . . . . . . . . . . . . . . .   ",
"  . . . . . . . . . . . . . . . . . . 1 ; > > 1 - O O O O O O O . . = = > - ; ; ; > - O . O O . . . . . . . . . . . . . . . X   ",
"  X . . . . . . . . . . . . . . . . O > > - 1 ; O O > 4 4 > O O . . O . O O O . . O . . . . . . . . . . . . . . . . . . . . .   ",
"  . . . . . . . . . . . . . . . . . . O - > > 1 : : 4 3 > O . . . . . . . . . . . . . . O . . . . . . . . . . . . . . . . . .   ",
"  . . . . . . . . . . . . . . . . . . . O O O O - = - O O . . O . . . . . . . . . . . . . . . . . . . . . . . . . . . . . . .   ",
"  . . . . . . . . . . . . . . . . . . . . . . . O . O O . . O . . . . . . . . . . . . . . . . . . . . . . . . . . . . . . . .   ",
"  . . . . . . . . . . . . . . . . . . . . . . . . . . . . O . . . . . . . . . . . . . . . . . . . . . . . . . . . . . . . . .   ",
"  . . . . . . . . . . . . . . . . . . . . . . . . . . . . . . . . . . . . . . . . . X . . . . . . . . . . . . . . X . . . . .   "
};
