/* XPM */
static char *result[] = {
/* columns rows colors chars-per-pixel */
"64 64 155 2 ",
"   c #211313",
".  c #1D1516",
"X  c #201717",
"o  c #211313",
"O  c #211313",
"+  c #211313",
"@  c #211313",
"#  c #2F2819",
"$  c #332B1A",
"%  c #33221B",
"&  c #3F351E",
"*  c #2F2929",
"=  c #2C2324",
"-  c #312920",
";  c #322A2A",
":  c #3E372A",
">  c #4C311B",
",  c #423C1C",
"<  c #51351C",
"1  c #4E3A29",
"2  c #433C3C",
"3  c #71481F",
"4  c #7A4E1F",
"5  c #554F2E",
"6  c #5D5822",
"7  c #694420",
"8  c #7B4E20",
"9  c #625A24",
"0  c #6C6625",
"q  c #777128",
"w  c #7A7428",
"e  c #7E7828",
"r  c #211313",
"t  c #211313",
"y  c #554943",
"u  c #5B5555",
"i  c #6B6768",
"p  c #6D6969",
"a  c #89561F",
"s  c #895721",
"d  c #8D5A22",
"f  c #915C22",
"g  c #817C29",
"h  c #8D6131",
"j  c #C37A26",
"k  c #C97C25",
"l  c #C27A2C",
"z  c #C97E28",
"x  c #94714D",
"c  c #957454",
"v  c #837C63",
"b  c #817C7C",
"n  c #8A842B",
"m  c #99852B",
"M  c #97932D",
"N  c #98942D",
"B  c #B4B133",
"V  c #CB802C",
"C  c #CE892A",
"Z  c #DD8A2C",
"A  c #D69E2F",
"S  c #DA8A30",
"D  c #E48E2D",
"F  c #EC932F",
"G  c #FD9B2E",
"H  c #F0952F",
"J  c #EA9536",
"K  c #F19630",
"L  c #F49830",
"P  c #FD9D32",
"I  c #FD9F38",
"U  c #DCAB31",
"Y  c #D3B735",
"T  c #F5A433",
"R  c #FDA133",
"E  c #FDAB34",
"W  c #FDA13D",
"Q  c #E2B934",
"!  c #FDB436",
"~  c #FDBD37",
"^  c #FDBE38",
"/  c #D5D339",
"(  c #E6C538",
")  c #E9CA38",
"_  c #FDC439",
"`  c #FED53B",
"'  c #FEDD3D",
"]  c #E9E73D",
"[  c #FEE23D",
"{  c #FEE83F",
"}  c #CF8D42",
"|  c #D08F48",
" . c #D28F42",
".. c #D0904B",
"X. c #CF995D",
"o. c #D49957",
"O. c #DAA05F",
"+. c #FDA342",
"@. c #FDA94C",
"#. c #FEB25E",
"$. c #D79F60",
"%. c #DAA76E",
"&. c #DAA86F",
"*. c #DCAA73",
"=. c #DDAD79",
"-. c #FDB566",
";. c #FEB669",
":. c #FEBE79",
">. c #EFD243",
",. c #F7F541",
"<. c #FCF641",
"1. c #FEFD42",
"2. c #8F8B8B",
"3. c #968D89",
"4. c #969292",
"5. c #989494",
"6. c #A39B96",
"7. c #ABA7A6",
"8. c #ACA9A9",
"9. c #EDBF8E",
"0. c #FDC283",
"q. c #FDC68C",
"w. c #E5C29B",
"e. c #ECC59D",
"r. c #FECA93",
"t. c #FECD9B",
"y. c #F2CFAE",
"u. c #FED0A1",
"i. c #E5CEB8",
"p. c #EDD6BF",
"a. c #FED7B1",
"s. c #FED8B2",
"d. c #FEDEBB",
"f. c #F0D4B8",
"g. c #D5D5D5",
"h. c #D8D7D7",
"j. c #DEDDDD",
"k. c #EED7C1",
"l. c #EED8C0",
"z. c #FEE1C2",
"x. c #FEE6CE",
"c. c #FFE8CF",
"v. c #FEE7D0",
"b. c #FEECDA",
"n. c #F9E6D3",
"m. c #EAEAEB",
"M. c #F7EDE2",
"N. c #FBEFE4",
"B. c #FFF3E6",
"V. c #FCF3EA",
"C. c #F3F0ED",
"Z. c #F6F6F6",
"A. c #FEFAF5",
"S. c #F6F7F8",
"D. c #FFFFFF",
/* pixels */
"      t t t t t t t t t t t t t t t t t t t t t r r t r r t t r r r r r t t t t t t t t t t t t t t t t t t y t t t t t         ",
"      + O + + O + + + O + o + + O O + + O O . . . . . . . . . . . . . . . O O O + + + o + O + O + O + + + + O + O + O +         ",
"      + + @ + + + + + + + + + + + + + O , q q q q q q q w w w w q q q w q 5 @ @ + + + + + + + + + + + + + + + + + + + +         ",
"      + + + + + + + + + + + + + + + + O 0 ,.1.1.1.1.<.<.1.1.1.1.,.1.1.1.1.g O O + + + + + + + + + + + + + + + + + + + +         ",
"      + + + + + + + + + + + + + + + + . 0 1.1.1.1.1.1.1.1.1.1.1.1.1.1.1.1.g . @ + + + + + + + + + + + + + + + + + + + +         ",
"      + + + + + + + + + + + + + + + . . 0 1.1.1.1.1.1.1.1.1.1.1.1.1.1.1.1.g . O + + + + + + + + + + + + + + + + + + + +         ",
"      + + + + + + + + + + + + + & 6 6 6 m ' [ [ >.[ [ [ [ [ [ [ [ [ [ [ ' g > 1 > % + + + + + + + + + + + + + + + + + +         ",
"      + + + + + + + + + + + + O e ,.,.,.' T R R E R R R R R R R R R R R R Z j j k 3 + + + + + + + + + + + + + + + + + +         ",
"      + + + + + + + + + + + + + g 1.1.1.' R P P P P P P P P P P P P P P P D z z V 8 + + + + + + + + + + + + + + + + + +         ",
"      + + @ + + + + + + + + + + g 1.1.1.[ P P P P P P P P P P P P P P P P Z j z z 8 + + + + + + + + @ + + + + + + + + +         ",
"      + + + + + + + + + + + + + g 1.1.1.' P P P P P P P P P P P P P P P P Z z z z 8 O + + + + + + + + + + + + + + + + @         ",
"      + + + + + + + + + + + + O e 1.1.1.' R P P P P P P P P P P P P P P P Z z z z 8 O + + + + + + + + + + + + + + + + +         ",
"      + + + + + + + + + + + + O e 1.1.1.' P P P P P P P P P P P P P P P P Z z z V 4 . + + + + + + + + @ + + + + + + + +         ",
"      + + + + + + + + + + + O . g 1.1.1.[ P P P P P P P P P P P P P P P P Z j z z 4 . + + + + + + + + + % + + + + + + +         ",
"      @ + + + + + + + + + + + o g 1.1.1.' P P P P P R P R P P P P P P P P D k z V 4 O o + + + + + + + + + + + + + + + +         ",
"      + + + + + + + + + $ n B B Y ~ ~ _ ! P P P E ' ' ' ' ' ' ' ' ! P P P L F F F j f f f 7 + + + + + + + + + + + + + +         ",
"      + + + + + + + + . n 1.1.1.' P P P P P P P ! <.1.1.1.1.1.1.1.~ P P P P P P G D V V C a o . O + + + + + + + + + + +         ",
"      + + + + + + + . . N 1.1.1.` P P P P P P P ! <.1.1.1.1.1.1.1.~ P P P P P P G D k z V a o . O + + + + + + + + + + +         ",
"      + + + @ + @ + . . N 1.1.1.` P P P P P P P ! <.1.1.1.1.1.1.1.~ P P P P P P G D k z V a . . X + + + + + + + + + + +         ",
"      + + + + + + . . . N 1.1.1.` P P P P P P P ! <.1.1.<.) Q Q Q T P P P P P P R D V k V a o . X + + + + + + + + + + +         ",
"      + + + + + + . . . N 1.1.1.` P P P P P P P ! <.1.1.<.A k k k F P P P P P P R D z z V a . . X O + + + + + + + + + +         ",
"      + + + + @ + . . . N 1.1.1.` P P P P P P P ! <.1.1.<.A l z z F P P P P P P P D z z V a o . X O + + + + + + + + + +         ",
"      + + + + + + . . . N 1.1.1.` P P P P P P P ! <.1.1.<.A z z z F P P P P P P P D z z V a o . X O + + + + + + + + + +         ",
"      + + + + + + . . . N 1.1.1.` P P P T _ _ ^ ` <.1.1.<.A z z z F P P P P P P P D z z V s . . X O + + + + + + + + % +         ",
"      @ + + + + + X X X N 1.1.1.` P P P ~ 1.1.<.1.1.1.1.<.A k z V F P P P P P P P D z z V a o . + + + + + + @ + + + + +         ",
"      + + + + + + + . . N 1.1.1.` P P P ~ 1.1.1.1.1.1.1.<.A l z z F P P P P P P P D z z V s . . + + + + + + + + + + + +         ",
"      + + + + + X X . . N 1.1.1.` P P P ^ 1.1.1.1.1.<.1.<.A k z V F G P P P P P P D z z z a o . + + + + + + + + + + + +         ",
"      + + @ + + + X . . N 1.1.1.` P P P ! [ [ >.[ 1.1.1.<.A l z z F P P P P P P P D z z z a o o + + + + + + + + + + + +         ",
"      + + + + + O X . . M { 1.1.` P P P P P P P ! 1.1.1.<.A l z V F P P P P P P P D z z z a . X + + + + + + + + + + + +         ",
"      + + + + + X X . . N 1.1.1.` P P P P P P P ! <.1.1.<.A k z V F P P P P P P P D z z z a o X + + + + + + + + + @ + +         ",
"      + + + + + + X X . N 1.1.1.` P P P P P P P ! <.1.1.<.A j z k F P P P P P P P D z z z s o X + + + + + + + + + + + +         ",
"      + + @ + + + X . . N 1.1.1.` P P P P P P P ! <.1.1.<.A k k V F P P P P P P P D z z z s o o O + + + + + + + + + + +         ",
"      + + + + + @ . . . N 1.1.1.` P P P P P P P ! <.1.1.<.A l z V F P P P P P P P D z z z s o . . + + + + @ + + + + + +         ",
"      + + + + @ @ O . . N 1.1.1.` P P P P P P P ! <.1.1.<.A z z k F P R P P P P P D z z V s . o + + + + + + + + + + + +         ",
"      + + + + + O . . . N 1.1.1.` P P P P P P P ! <.1.1.<.A k z V F G G P P P P P D k k z s . . . + + + + + + + + + + +         ",
"      + + + + + @ O . . N 1.1.1.` P P P P P P P ! <.1.<.<.A z z V F G G P P P P P J } }  .h . . o + + + + + + + + + @ +         ",
"      + + + + @ @ O . . M 1.1.1.` P P P P P P P ! <.1.1.<.A k z V F P P P P P P P q.M.M.V.6.. . + + + + + + + + + + + +         ",
"      + + + @ O O . . . N 1.1.1.` P P P P P P P ! <.1.1.<.A l z z F P P P P P P G t.D.D.D.8.. . . + + + + + + + + + @ +         ",
"      + + + + + + + . . M 1.1.1.` P P P P P P P ! <.1.1.<.A l k V F P P P P G R P t.D.D.D.8.+ . + + + + + + + + + + + +         ",
"      + + + + + @ . . . M 1.1.1.` P P P P P P P ! <.1.1.<.A z z k F P P P W W W W u.D.D.D.8.. . . + + + @ + + + + + + +         ",
"      + + + + @ + . . . N 1.1.1.` P P P P P P P ! <.1.1.<.A k z V F G G P r.b.c.c.B.D.D.D.8.. . O + + + + + + + + + + +         ",
"      + + + + + @ . . . N 1.1.1.` P P P P P P P ! <.1.1.<.A z z V F R G P s.D.D.D.D.D.D.D.8.+ . + + + @ + + + + + + + +         ",
"      + + + + + + . . . M 1.1.1.` P P P P P P P ! <.1.1.<.A l z z F P P P s.D.D.D.D.D.D.D.8.O . + + + + + + + + + + @ +         ",
"      + + + + + @ O . . M 1.1.1.` P P P P P P P ! <.<.1.,.A z z V H P R P s.D.D.D.D.D.D.D.7.. o + + + + + + + + + + + +         ",
"      + + + + + + . . . M 1.1.1.` P P P P P P P T U U U U C z z V 9.d.d.d.B.D.D.D.p.*.*.=.c o + + + + + + + + + + + + +         ",
"      @ + + + + @ . . . M 1.<.1.` P P P P P P P K z k k k z z z V k.D.D.D.D.D.D.D.w.k k z s . + + + + + + + + + + + + +         ",
"      + + + + + @ . . . M 1.1.1.` P P P P P P P K z z z z z z z V l.D.D.D.D.D.D.D.w.z z z a o o + + + + @ + + + + + + +         ",
"      + + + + + @ . . . N 1.1.<.` P P P P P P P K z z z z j z j l l.D.D.D.D.D.D.D.w.k k z a o o + + + + + + + + + + + +         ",
"      + + + + + + + . . M 1.1.1.` P P P P P P P K Z C Z S $.&.&.&.n.D.D.D.b.z.z.z.e.%.%.%.x X o + + + + + + + + + + + +         ",
"      + + + + + + + . . M 1.1.1.` P P P P P P P P P P P I x.D.A.D.D.D.D.D.r.P I W t.A.D.D.7.O + + + + + + + + + + + + +         ",
"      + + + + + + + o . N 1.1.1.` P G R P P P P P P P G +.c.D.D.D.D.D.D.D.q.G P P t.D.D.D.8.+ + + + + + + + @ + + + + +         ",
"      + + + @ + + + o . N 1.1.1.` P P T P P P P P G G G W c.D.D.D.D.D.D.D.q.G G G t.D.D.D.8.@ + + + + + + + + + + + + +         ",
"      + + + + + O @ @ O n / / / ) ! ! _ E P P P W #.#.#.;.b.D.D.D.B.b.b.b.r.#.#.#.w.g.g.h.4.+ + + + + + + + + + + + + +         ",
"      + + + + + + + @ @ - # # # M { { { ' R P G -.V.A.A.A.D.D.D.D.0.W +.+.a.A.A.A.6.; ; ; ; + + @ + + + + + + + + + + +         ",
"      + + + + + + @ + + O . . . g { 1.1.' P P G ;.A.D.D.D.D.D.D.A.:.G P P a.D.D.D.4.. . O + + + + + + + + + + + + + + +         ",
"      + + + + + + + + + @ O . . g 1.1.1.' R G G -.A.D.D.D.D.D.D.D.:.G G P s.D.D.D.4.. o + + + @ + + + + + + + + + + + @         ",
"      + + + + + + + + + + + + . q ] ] ] >.@.@.@.:.A.D.D.D.V.C.N.C.0.@.@.@.y.m.m.M.2.O + + + + + + + + + + + + + + + @ +         ",
"      + + + + + + + @ O + + + * 1 , & & v B.B.B.V.D.D.D.A.=.| } ..f.V.B.V.3.2 2 2 2 + + + + + + + + + + + + + + + + + +         ",
"      + + + + + + + + @ + + + + = . . . i S.D.D.D.D.D.D.A.$.k k V k.D.D.D.2.. . O + + + + + + + + + + + + + @ + + + + +         ",
"      + + + + + + + + + + + + + O o . . i D.D.D.D.D.D.D.S.$.k j V k.D.D.D.p . . + + + + + + + + + @ + @ + + + + + + + +         ",
"      + + + + + + + + + + + + + + + + o u j.Z.Z.Z.Z.Z.Z.C.X.j j l i.S.Z.Z.b . . + + @ + + + + + + + + + + + + + + + + +         ",
"      @ + + + + + + + + + + + + + + + + % 2 u u u u u u u 1 > > 1 y u u u 5 @ O + + + + + + + + + + + + + + + + + + + +         ",
"      + @ + + + + + + + + + @ + + + + + O O O o . . . . X X . X . . O O O O O @ + + + + + + + + @ + + + + + + + + + + +         ",
"      + + + + + + + + + + + + + + + + + + + + + O + O o O + + + + O O O @ O @ O + + + + + + + + + + + + + @ + + + + + +         "
};
