/* XPM */
static char *result[] = {
/* columns rows colors chars-per-pixel */
"64 64 185 2 ",
"   c #211313",
".  c #1D1516",
"X  c #1F1518",
"o  c #211717",
"O  c #231A16",
"+  c #211313",
"@  c #211313",
"#  c #2B1D1A",
"$  c #2D231A",
"%  c #33241A",
"&  c #342C1B",
"*  c #3A2B1C",
"=  c #3C311D",
"-  c #2D2323",
";  c #312727",
":  c #3B3333",
">  c #422C1A",
",  c #482F1B",
"<  c #443B1E",
"1  c #4F331C",
"2  c #55371B",
"3  c #5B3B1D",
"4  c #613E1D",
"5  c #473E20",
"6  c #433B3B",
"7  c #4C461F",
"8  c #4E481F",
"9  c #50481F",
"0  c #71481E",
"q  c #67421D",
"w  c #544D20",
"e  c #565020",
"r  c #5A5423",
"t  c #4D4635",
"y  c #655E2B",
"u  c #6B6525",
"i  c #6F6A25",
"p  c #716A26",
"a  c #7D7829",
"s  c #575151",
"d  c #5A5353",
"f  c #5F5956",
"g  c #625C5C",
"h  c #6A6565",
"j  c #7C7568",
"k  c #767171",
"l  c #7E797A",
"z  c #736C6B",
"x  c #86541F",
"c  c #885622",
"v  c #855421",
"b  c #925C22",
"n  c #996123",
"m  c #A16524",
"M  c #AC6C25",
"N  c #B16F25",
"B  c #BD7727",
"V  c #BE7728",
"C  c #A97126",
"Z  c #C57B27",
"A  c #C87C26",
"S  c #C67C28",
"D  c #C97E28",
"F  c #9B952F",
"G  c #A8A431",
"H  c #BEBB35",
"J  c #B9B534",
"K  c #CE8129",
"L  c #D4852A",
"P  c #D9872B",
"I  c #DD892C",
"U  c #CC8638",
"Y  c #DB8D35",
"T  c #E48E2E",
"R  c #E7902E",
"E  c #EB922E",
"W  c #FD9B2E",
"Q  c #F19630",
"!  c #F59830",
"~  c #FD9D32",
"^  c #FD9F39",
"/  c #C4AF33",
"(  c #C5BB35",
")  c #FDA233",
"_  c #FDAC34",
"`  c #FDA13C",
"'  c #FDBC37",
"]  c #FDBF38",
"[  c #F9B636",
"{  c #ECA432",
"}  c #DAD53B",
"|  c #CDCA38",
" . c #FDC439",
".. c #FDCB3A",
"X. c #E4DE3C",
"o. c #FED63B",
"O. c #FEDE3D",
"+. c #E4E23D",
"@. c #211313",
"#. c #211313",
"$. c #FFEA3F",
"%. c #F2F03F",
"&. c #FEFC3F",
"*. c #B38049",
"=. c #E99940",
"-. c #CEBD44",
";. c #FDA544",
":. c #FDA94E",
">. c #FDA845",
",. c #FDAB53",
"<. c #FDAF5A",
"1. c #FDB15E",
"2. c #F8B656",
"3. c #D9A66B",
"4. c #DCAD7B",
"5. c #FDB362",
"6. c #FDB66A",
"7. c #FDB96E",
"8. c #FEBB74",
"9. c #FEBF7A",
"0. c #FDC656",
"q. c #FEEF40",
"w. c #FEE043",
"e. c #FEF340",
"r. c #FEFC42",
"t. c #FBF947",
"y. c #FEFC52",
"u. c #FEFC5B",
"i. c #FED775",
"p. c #FEE973",
"a. c #FEFD75",
"s. c #FEFA7A",
"d. c #FEE565",
"f. c #E7BC90",
"g. c #FEC484",
"h. c #FEC68B",
"j. c #FEC88E",
"k. c #EDC79F",
"l. c #FDC791",
"z. c #FEC992",
"x. c #FECD9A",
"c. c #FED29A",
"v. c #FEFD83",
"b. c #FEFD8A",
"n. c #FEFD9F",
"m. c #FEF997",
"M. c #DBC3AD",
"N. c #E6C4A0",
"B. c #EAC6A1",
"V. c #F4CDA6",
"C. c #FED1A4",
"Z. c #FED6AD",
"A. c #EACEB2",
"S. c #FED8B1",
"D. c #FEDEBE",
"F. c #ECD5BE",
"G. c #FFFEA1",
"H. c #FEE3BA",
"J. c #FFFCB3",
"K. c #C9C8C8",
"L. c #DAD8D8",
"P. c #FEDFC0",
"I. c #E3DAD0",
"U. c #FEE2C4",
"Y. c #FEE6CC",
"T. c #FFFEC2",
"R. c #FFFECB",
"E. c #FFEAD5",
"W. c #FFEDDC",
"Q. c #F5E5D5",
"!. c #FFFED2",
"~. c #FFFFDD",
"^. c #E0DFE0",
"/. c #E4E3E4",
"(. c #ECECEC",
"). c #FFEFE1",
"_. c #FFF2E6",
"`. c #FFFFE7",
"'. c #FFF5EC",
"]. c #FFFCED",
"[. c #F3F1EE",
"{. c #FEF7F1",
"}. c #FFF9F4",
"|. c #FFFFFE",
" X c #F4F4F4",
/* pixels */
"      @ @ @ @ @ @ @ @ @ @ @ @ @ @ @ @ @ @ @ @ @ @ @ @ @ @ @ @ @ @ @ @ @ @ @ @ @ @ @ @ @ @ @ @ @ @ @ @ @ @ @ # @ @ @ @ @         ",
"      @ @ @ @ # @ @ @ @ @ # @ @ @ @ @ $ @ @ @ @ @ X + + + X + + X + o o . + X @ @ @ @ @ @ @ @ @ @ @ @ @ @ @ @ @ @ # @ @         ",
"      @ @ @ @ @ @ @ @ @ @ @ @ @ @ @ @ @ @ @ @ = u p p p u i i i i u p u p p p y - @ @ @ @ @ @ @ # @ @ @ @ @ @ @ @ @ @ @         ",
"      @ @ @ @ @ @ @ @ @ @ @ @ @ @ @ @ @ @ @ @ F r.r.t.t.&.t.r.r.r.r.r.r.t.r.r.H % @ @ @ @ @ # @ @ @ @ @ @ @ @ @ @ # @ @         ",
"      @ @ @ @ @ @ @ @ @ @ # @ @ O O @ @ @ O O J r.r.r.r.r.r.r.r.r.r.r.r.r.r.r.( $ O @ @ @ @ @ @ @ @ @ @ @ @ @ @ @ @ @ @         ",
"      @ @ @ @ @ @ @ @ @ @ # @ @ . . X . . . X J r.r.r.r.r.r.r.r.r.r.r.&.r.r.r.H O . o o + O + O @ @ @ @ @ @ # @ @ @ @ #         ",
"      @ @ @ @ @ @ @ @ @ @ @ @ 5 e e 8 7 w w e ( q.$.$.$.$.$.$.$.$.$.$.$.$.$.q.-.f s s s d d d d 6 @ @ @ @ @ @ @ @ @ @ @         ",
"      @ @ @ # @ @ @ @ @ @ @ - J t.$.$.$.q.e.q.' ) ) ) ) ) ) ) ) ) ) ) _ ) ) ) 8.[. X X X X X X[.g @ @ @ @ @ @ @ @ @ @ @         ",
"      @ @ @ @ @ @ @ @ @ @ @ * } r.r.r.r.r.r.r.' ~ ~ ~ ~ ~ ~ ~ ~ ) ~ ~ ~ ~ ~ W 8.}.|.|.|.|.|.|. Xg + @ @ @ @ @ @ @ @ @ @         ",
"      @ @ @ @ @ @ @ @ @ @ o & } r.r.r.r.r.r.r.' ~ ~ ~ ~ ~ ~ ~ ~ ~ ~ ~ ~ W W W 8.|.|.|.|.|.|.|. Xg . @ @ @ @ @ @ @ @ @ @         ",
"      @ @ @ @ @ @ @ ; < < < 9 X.e.q.q.q.e.q.q.' ~ ~ ~ ~ ~ ~ ~ ) ~ ~ ) ` ,.,.,.h.|.|.|.|._._._.W.k 6 6 6 ; @ @ @ # @ @ @         ",
"      @ @ @ @ @ @ @ y X.+.X.X.[ _ _ ) _ _ _ _ ~ ~ ~ ~ ~ ~ ~ ~ ~ ~ ~ ! i._._._.'.|.|.|.{.8.:.,.,.F././.^.h @ @ @ @ @ @ @         ",
"      @ @ # @ @ o . u t.r.r.&._ ~ ~ ~ ~ ~ ~ ~ ~ ~ ~ ~ ~ ~ ~ ~ ~ ~ ~ W g.|.|.|.|.|.|.|.{.1.W W ` U.|.|.|.k @ @ @ @ @ @ @         ",
"      # @ @ @ @ + . u &.r.r.e._ ~ ~ ~ ~ ~ ~ ~ ~ ~ ~ ~ ~ ~ ~ ~ ~ ~ ~ W g.|.|.|.|.|.|.|.{.1.W ~ ` Y.|.|.|.k + @ @ @ @ @ #         ",
"      @ @ @ @ o o . u t.r.r.e._ ~ ~ ~ ~ ~ ~ ~ ~ ~ ~ ~ ~ ~ ~ ) ~ ~ ^ ~ f.|.|.|.|.|.|.|.'.1.~ ~ ` U.|.|.|.k . @ @ @ @ @ @         ",
"      @ @ @ r G G G /  . . . .) ~ ~ ~ ~ ~ ~ ~ ~ ~ ~ ~ ] o.o.o.i.S.Z.Z.Y.|.|.|.W.j.h.h.j.Z.Z.S.S.x.h.h.h.*.v c v , @ @ @         ",
"      @ @ + a r.r.r.$.~ ~ ~ ~ ~ ~ ~ ~ ~ ~ ~ ~ ~ ~ ~ ~ o.r.r.&.G.|.|.|.|.|.|.|.U.~ W W ;.W.|.|.|.6.W ~ ~ I D D K 0 @ @ @         ",
"      @ @ . a r.r.r.O.~ ~ ~ ~ ~ ~ ~ ~ ~ ~ ~ ~ ~ ~ ~ ~ o.r.r.r.G.|.|.|.|.|.|.|.U.` ~ W ;.E.|.|.}.6.~ ~ ~ I D D D 0 X @ @         ",
"      @ + . a r.r.r.O.) ~ ~ ~ ~ ~ ~ ~ ~ ~ ~ ~ ~ ~ ~ ~ o.r.r.&.G.|.|.|.|.|.|.|.U.^ ~ W ;.W.|.|.|.6.W ~ ~ I D D D 0 . O @         ",
"      @ X . a r.r.r.O.~ ~ ~ ~ ~ ~ ~ ~ ~ ~ ~ ~ ] ......p.G.G.n.R.|.|.|.Q.N.N.N.k.x.x.x.x.C.C.C.c.,.~ ~ ~ I D D D 0 X + @         ",
"      @ X . a r.r.r.O.) ~ ~ ~ ~ ~ ~ ~ ~ ~ ~ ) O.r.r.r.J.|.|.|.|.|.|.|.A.D A A 3.|.|.|.{.1.~ ~ ~ ~ ~ ~ ~ P D D D 0 . O @         ",
"      O X . a r.r.r.O.) ~ ~ ~ ~ ~ ~ ~ ~ ~ ~ ~ O.r.r.r.J.|.|.|.|.|.|.|.A.A A A 3.}.|.|.{.1.W ~ ~ ~ ~ ~ ~ I D D D 0 . + @         ",
"      @ . . a r.r.r.O.) ~ ~ ~ ~ ~ ~ ~ ~ ~ ~ ~ O.&.&.&.J.|.|.|.|.|.|.|.A.A Z Z 3.|.|.|.{.1.W ~ ~ ~ ~ ~ ~ I D D D 0 . + @         ",
"      o . . a r.r.r.O.) ~ ~ ~ ~ ~ ~ ~ [ ] ]  .p.b.b.b.!.|.|.|.).D.D.D.V.4.4.4.f.D.D.U.S.,.~ ~ ~ ~ ~ ~ ~ I D D D 0 . O @         ",
"      O . . a r.r.r.O.~ ~ ~ ~ ~ ~ ~ ) $.r.r.r.T.|.|.|.|.|.|.|.C.~ ` ~ g.|.|.|.P.;.~ ~ ` ~ ~ ~ ~ ~ ~ ~ ) L K K K 0 . X O         ",
"      + . . a r.r.r.O.~ ~ ~ ~ ~ ~ ~ ) $.r.r.t.T.|.|.|.|.|.|.|.C.~ ~ ~ g.|.|.|.P.^ ~ ~ ~ ~ ~ ~ ~ ~ ~ ~ ~ P K B K 0 . . @         ",
"      o . . a r.r.r.O.) ~ ~ ~ ~ ~ ~ ) $.r.&.t.J.|.|.|.|.|.|.|.C.W W W g.|.|.|.U.` ~ ~ ~ ~ ~ ~ ~ ~ ~ ~ ~ P K V K 0 . . X         ",
"      X . . a r.r.r.O.~ ~ ~ ~ ~ ~ ~ ) d.a.a.s.!.|.|.|._.E.E.E.C.6.6.5.l.Q.Q.Q.V.^ ~ ~ ~ ~ ~ ~ ~ ~ ~ ~ { L K K K 0 . . @         ",
"      + X . a r.r.r.O.) ~ ~ ~ ~ ~ ~ ` Y.|.}.|.|.|.|.|.x.` ;.` x.}.|.|.A.U U U Y ~ ~ ~ ~ ~ ) ~ ~ ~ ~ ~ ~ P K K K 0 . X O         ",
"      + . . a r.r.r.O.) ~ ~ ~ ~ ~ ~ ` E.|.|.|.|.|.|.|.l.W W W x.|.|.|.A.S D D L ~ ~ ~ ~ ~ ~ ~ ~ ~ ~ ~ ~ L K V K 0 . X @         ",
"      O X . a r.r.r.$.~ ~ ~ ~ ~ W ~ ` Y.|.|.|.|.|.|.|.l.W W W x.|.|.|.A.D D D L ~ ~ ~ ~ ~ ~ ~ ~ ~ ~ ~ ~ P K K K 0 . X @         ",
"      O . . a &.r.r.O.~ ~ ~ ~ :.,.,.<.E.|.|.|.].`.`.`.c.,.,.,.x._._.'.B.D D D P ~ ~ ~ ~ ~ ~ ~ ~ ~ ~ ~ ~ L K K K 0 . X @         ",
"      O . . a r.r.r.O.) ~ ~ ;.Y.'._.'.|.|.|.|.m.u.u.u.J.'.'.'.C.:.:.:.=.D D D P ! ~ ~ ~ ~ ~ ~ ~ ~ ~ ~ ~ I D D D 0 . X @         ",
"      O . . a r.r.r.O.~ ~ ~ ;.W.|.|.|.|.|.|.|.v.&.r.e.J.|.|.|.C.~ ~ W R D D D P ~ ~ ) ~ ~ ~ ~ ~ ~ ~ ~ ~ I D D D 0 . X @         ",
"      @ . . a r.r.r.O.) ~ W ;.W.|.|.|.|.|.|.|.v.&.&.r.J.|.|.|.C.~ ~ ~ R D D D P ~ ~ ~ ~ ~ ~ ~ ~ ~ ~ ~ ~ I D D D 0 . X @         ",
"      o . . a r.r.r.w.>.;.;.,._.|.|.|.}.{.{.].b.y.y.y.J.}.{.}.x.W ~ ~ R D D D P ~ ~ ~ ~ ~ ~ ~ ~ ~ ~ ~ ~ I D D D 0 . X @         ",
"      @ . . a r.r.r.a.E.W.W.W.}.|.|.|.h.1.5.5.H.~.~.~.c.1.5.5.>.~ ~ ~ R D D D P ~ ~ ~ ~ ~ ~ ~ ~ ) ~ ~ ~ I D D K 0 . @ @         ",
"      O . . a &.r.&.v.|.|.|.|.|.|.|.}.5.W W ~ D.|.|.|.z.W W W ~ ~ ~ ~ R D D D P ~ ~ ~ ~ ~ ~ ~ ~ ~ ~ ~ ~ I D D D 0 . O @         ",
"      @ X . a &.r.r.s.|.|.|.|.|.|.|.|.5.~ ~ ~ D.|.|.|.z.W ~ ~ ~ ~ ~ ~ R D D D P ~ ~ ~ ~ ~ ~ ~ ~ ~ ~ ~ ~ I D D D 0 . O @         ",
"      + X X a y.t.r.v.|.|.|.|.|.|.|.}.6.~ ` ` H.|.|.|.j.W ~ ~ ~ ~ ~ ~ R D D D P ~ ~ ~ ~ ~ ~ ~ ~ ~ ~ ~ ~ I D D D 0 . O @         ",
"      @ X . j T.R.R.~.|.|.|.}.z.8.8.9.S.U.U.U.m.s.v.v.0.W ~ ~ ~ ~ ~ ~ R D D D P ! ~ ~ ~ ~ ~ ~ ~ ~ ~ ~ ~ L K K K 0 . X $         ",
"      O . . l |.|.|.|.|.|.|.'.,.W W ` Y.|.|.|.v.&.&.&...~ ~ ~ ~ ~ ~ ~ E D D D P ~ ~ ~ ~ ~ ~ ~ ~ ~ ~ ~ ~ P B K V 0 . X @         ",
"      O . . l |.|.|.|.|.|.|.'.1.W W ` E.|.|.|.v.r.r.r. .~ ~ ~ ~ ~ ~ ~ R D D D I ~ ~ ~ ~ ~ ~ ~ ~ ~ ~ ~ ~ I K K K 0 . . X         ",
"      + . . l |.|.|.|.|.|.|.'.1.~ ~ ` Y.|.|.|.v.r.r.r. .~ ~ ~ ~ ~ ~ ~ E D D D I ~ ~ ~ ~ ~ ~ ) ~ ~ ~ ~ { P K K V 0 . . @         ",
"      o . . l |.|.|.W.l.j.h.z.C.Z.Z.Z.x.h.h.h.0. . . .{ I I I I T I I T R R R E ~ ~ ~ ~ ~ ~ ~ ~ ~ ~ ) ~ P K K K 0 . X X         ",
"      o X . l |.|.|.P.~ W W ;._.|.|.|.5.W ~ ~ ~ ~ ~ ~ T D D D D D D D I ~ ~ ~ ~ ~ ~ ~ ~ ~ ~ ~ ~ ~ ~ ~ ~ L K K K 0 . . O         ",
"      o . . l |.|.|.U.` ~ ~ ;.W.|.|.}.6.W ~ ~ ~ ~ ~ ~ I D D D D D D D I ~ ~ ~ ~ ~ ~ ~ ~ ~ ~ ~ ~ ~ ~ ~ ~ P K K K 0 . . X         ",
"      . . . l |.|.|.H.~ W W ;.W.|.|.|.6.W ~ ~ ~ ~ ~ ~ I D D D D D D D I ~ ~ ~ ~ ~ ~ ~ ~ ~ ~ ~ ~ ~ ~ ~ ~ L K K K 0 . X @         ",
"      @ O + g K.K.K.M.7.7.6.8.D.E.Y.U.<.~ ~ ~ ~ ~ ~ ~ R L L P L L P P T ~ ~ ~ ~ ~ ~ ~ ~ ~ ~ ~ ~ Q E Q E V m m m 4 + @ @         ",
"      @ @ @ @ ; - - z }.}.|._.5.` ` ;.~ ~ ~ ~ ~ ~ ~ ~ ~ ~ ~ ~ ~ ~ ! ~ ~ ~ ~ ~ ~ ~ ~ ~ ~ ~ ~ ~ ~ I K K K q @ # # # @ @ @         ",
"      @ @ # @ @ O . h  X|.|.'.<.W ~ ~ ~ ~ ~ ~ ~ ~ ~ ~ ~ ~ ~ ~ ~ ~ ~ ~ ~ ~ ~ ~ ~ ~ ~ ~ ~ ~ ~ ~ ~ L D D D 4 + @ @ @ @ @ @         ",
"      @ @ @ @ @ @ + h |.|.|.{.<.~ ~ ~ ) ~ ~ ~ ~ ~ ~ ~ ~ ~ ~ ~ ~ ~ ~ ~ ~ ~ ~ ~ ~ ~ ~ ~ ~ ~ ~ ~ ~ I D D D q @ @ @ @ @ @ @         ",
"      @ @ @ @ @ @ + f L.^.^.I.2._ _ _ _ _ _ [ ) ~ ~ ~ ~ ~ ~ ~ ~ ~ ~ ~ ~ ~ ~ ~ ~ ! ! ! ! ~ ! ! ! Z M N M 2 @ @ @ @ @ @ @         ",
"      @ @ @ @ @ @ @ - : : : t } e.e.e.e.e.%.e.[ ~ ~ ~ ~ ~ ~ ~ ~ ~ ~ ~ ~ ~ ~ ~ Q L D L D D D D D 3 % % % @ @ @ @ @ @ @ @         ",
"      @ # @ @ @ @ @ @ O o . & } r.r.r.r.r.r.&.[ ~ ~ ~ ~ ~ ~ ~ ~ ~ ~ ~ ~ ~ ~ ~ Q D D D D D D S S 2 X O @ @ @ @ @ @ @ @ @         ",
"      @ @ @ @ @ @ @ @ @ @ X & } r.r.r.r.r.r.&. .~ ~ ~ ~ ~ ~ ~ ~ ~ ~ ~ ~ ~ ~ ~ Q D D D D D D D S 1 + @ @ @ @ @ @ @ @ @ @         ",
"      @ @ @ @ @ @ @ @ @ @ @ * | q.q.t.#.#.#.#. .~ ! ~ ! ! ~ ! ! ~ ! ! ~ ! ! ~ T Z B B B B B Z N 5 + @ @ @ @ @ @ @ # @ @         ",
"      @ @ @ @ @ @ @ @ @ @ @ # 7 7 7 < < 7 7 8 C L L L K L L L L L L L L L L L M , > > > > > > > # @ @ @ @ # # @ @ @ @ @         ",
"      # @ @ @ # @ @ @ @ @ @ @ + . . . . . . . b D D D D D D D D S D D D D D D b + X + + X + + @ @ @ @ @ @ @ @ @ @ @ @ @         ",
"      @ @ @ @ # @ @ @ @ @ @ @ @ O X . X . . . b D D D D D D D D D D D D D D L n # @ @ @ + @ @ @ @ @ # @ @ @ @ @ @ @ @ @         ",
"      @ @ @ @ @ @ @ # @ @ @ @ @ @ @ O @ X @ X b D D Z S S Z S S Z S Z S S S S c # @ @ @ @ @ @ @ @ # @ @ @ @ @ @ @ @ # @         ",
"      @ @ @ @ @ @ @ @ @ @ @ @ @ @ @ @ @ @ @ @ , 2 2 2 2 2 2 2 2 2 2 2 2 2 2 2 * @ @ @ @ @ @ # @ @ @ @ @ # @ @ @ @ @ @ @         ",
"      @ # @ @ @ @ @ @ @ @ @ @ @ @ @ @ @ @ @ @ @ X . . . . . . . . . . . . . . @ @ @ @ @ @ @ @ @ @ @ @ @ @ @ @ @ @ @ @ @         ",
"      @ @ @ @ @ @ @ @ @ @ @ @ @ @ @ @ @ @ @ @ @ @ O O X + O + O + + + @ @ + @ @ @ @ @ @ @ @ @ @ @ @ @ @ @ @ @ @ @ @ @ @         "
};
