/* XPM */
static char *result[] = {
/* columns rows colors chars-per-pixel */
"64 64 165 2 ",
"   c #211313",
".  c #1D1516",
"X  c #1E1518",
"o  c #211313",
"O  c #211313",
"+  c #211313",
"@  c #211313",
"#  c #211313",
"$  c #2D1E15",
"%  c #2F241B",
"&  c #3C271C",
"*  c #36271C",
"=  c #2C2323",
"-  c #302320",
";  c #332A2A",
":  c #382F2F",
">  c #3A3232",
",  c #422B1C",
"<  c #4C321B",
"1  c #453E1D",
"2  c #52351C",
"3  c #57381E",
"4  c #5D3C1D",
"5  c #613E1D",
"6  c #453826",
"7  c #593B22",
"8  c #453F3F",
"9  c #453E35",
"0  c #64411D",
"q  c #6E461E",
"w  c #754A1F",
"e  c #7A4E1F",
"r  c #504721",
"t  c #5F5823",
"y  c #6E4821",
"u  c #615B23",
"i  c #7A7428",
"p  c #474141",
"a  c #484040",
"s  c #5F5959",
"d  c #665D59",
"f  c #756E6E",
"g  c #787474",
"h  c #6B6767",
"j  c #845421",
"k  c #8E5A22",
"l  c #935C23",
"z  c #AA6B25",
"x  c #C27A27",
"c  c #C77D28",
"v  c #C97E28",
"b  c #C17E35",
"n  c #837D7D",
"m  c #8D882C",
"M  c #AD812A",
"N  c #A49F30",
"B  c #A8A431",
"V  c #A5A230",
"C  c #BAB634",
"Z  c #BAB63C",
"A  c #CB8229",
"S  c #CD882A",
"D  c #D6852A",
"F  c #D8872B",
"G  c #DC892C",
"H  c #D78A2B",
"J  c #E38E2D",
"K  c #E9922E",
"L  c #FD9B2E",
"P  c #F49830",
"I  c #FD9D32",
"U  c #FD9F3A",
"Y  c #C0AE33",
"T  c #FDA333",
"R  c #FDAE35",
"E  c #FDA13C",
"W  c #E0B733",
"Q  c #FDB937",
"!  c #F6B135",
"~  c #EBCF38",
"^  c #FDC438",
"/  c #FDCD3A",
"(  c #F8CA38",
")  c #EED63A",
"_  c #EED83B",
"`  c #F0DD3C",
"'  c #E9E73C",
"]  c #EBE93E",
"[  c #FEE53E",
"{  c #FEE83F",
"}  c #FEFC3E",
"|  c #BAB64E",
" . c #FDA341",
".. c #FDA74A",
"X. c #FDA84A",
"o. c #FAAE5D",
"O. c #FDB15F",
"+. c #FDB262",
"@. c #FDB76B",
"#. c #FDB86D",
"$. c #FDBB74",
"%. c #FEBD78",
"&. c #FDC640",
"*. c #FEC948",
"=. c #F7F540",
"-. c #FEF441",
";. c #FEFD42",
":. c #FEFD4B",
">. c #FEFC53",
",. c #FEFC59",
"<. c #E9E744",
"1. c #FEFD65",
"2. c #FEFD6B",
"3. c #FFFE70",
"4. c #FEFB79",
"5. c #E9E867",
"6. c #938E8E",
"7. c #9C9999",
"8. c #BAB898",
"9. c #A7A4A4",
"0. c #A9A6A6",
"q. c #BAB8AE",
"w. c #B9B7B7",
"e. c #BAB8B9",
"r. c #C9B39F",
"t. c #FEC385",
"y. c #FEC987",
"u. c #FEC68D",
"i. c #FECC95",
"p. c #FECE9A",
"a. c #FED094",
"s. c #FED89C",
"d. c #FEEF9A",
"f. c #FEEB96",
"g. c #FECFA1",
"h. c #FED0A3",
"j. c #FED6AF",
"k. c #FED9B4",
"l. c #FFDDB9",
"z. c #FFFDB5",
"x. c #FFFEBB",
"c. c #FEF5B1",
"v. c #EAE9B7",
"b. c #D0CFCF",
"n. c #D8D7D7",
"m. c #FEDEC0",
"M. c #FEE2C5",
"N. c #FEE6CE",
"B. c #FEEDC1",
"V. c #FFFFC9",
"C. c #FEF9C2",
"Z. c #FEE6D0",
"A. c #FEE9D4",
"S. c #FFFED2",
"D. c #FFFEDD",
"F. c #EAEAEA",
"G. c #E7E6E1",
"H. c #F6EFE8",
"J. c #FFF0E3",
"K. c #FFF8E7",
"L. c #FFFFEF",
"P. c #F7F7F7",
"I. c #FFF7F1",
"U. c #FFFDF4",
"Y. c #FFFFFE",
/* pixels */
"      @ @ @ @ @ @ @ @ @ @ @ @ @ @ @ @ @ @ @ @ @ @ @ @ @ + @ + o @ + + @ + O @ @ # @ @ @ @ @ @ # @ @ @ @ @ @ @ @ @ @ @ @         ",
"      @ @ @ @ @ @ @ @ @ @ @ @ @ @ @ @ @ @ @ @ @ @ o . . . . . . . . . . . . . o = @ @ @ @ @ @ @ @ @ @ @ @ @ # @ @ @ @ @         ",
"      @ @ @ @ @ @ # @ @ @ @ @ @ @ @ @ @ @ @ @ ; 8 8 9 8 8 8 8 9 1 1 1 6 8 8 8 r : @ @ @ @ @ @ @ @ @ @ @ @ @ @ @ @ @ @ @         ",
"      @ @ @ @ @ @ @ @ @ @ @ @ @ @ @ @ @ # @ + n F.F.F.F.F.F.F.v.<.' ' 5.G.F.F.F.d + @ @ @ @ @ @ @ @ @ @ @ @ @ @ @ @ @ @         ",
"      @ @ @ @ @ @ @ @ @ @ @ @ @ @ @ @ @ @ @ + 6.Y.Y.Y.Y.Y.Y.Y.V.:.;.;.3.P.Y.Y.P.d o + @ @ @ @ @ @ @ @ @ @ @ @ @ @ @ @ @         ",
"      @ @ @ @ @ # @ @ @ @ @ # @ @ @ @ @ @ + . 6.Y.Y.Y.Y.Y.Y.Y.V.;.;.} 2.Y.Y.Y.P.d + + @ @ @ @ @ @ @ @ @ @ @ @ @ @ @ @ @         ",
"      @ @ @ @ @ @ @ @ @ @ @ @ @ @ @ @ @ ; : ; 7.Y.Y.Y.U.I.I.I.C.,.>.>.4.K.I.I.H.d $ % * = @ @ @ @ @ @ @ @ @ @ @ @ @ @ @         ",
"      @ @ @ @ @ @ @ @ @ @ @ @ @ @ @ @ f b.n.n.F.Y.Y.Y.m.+.O.O.y.D.D.D.B.@.O.+.o.b z z z 7 @ @ O @ @ @ @ @ @ # @ @ @ # @         ",
"      @ @ @ @ # @ @ @ @ # @ @ @ @ @ + 0.Y.Y.Y.Y.Y.Y.Y.k.I L L $.Y.Y.Y.A. .L L P F v A v 5 @ @ @ @ @ @ @ @ @ @ @ @ @ @ @         ",
"      @ @ @ @ @ @ @ @ @ @ @ @ @ @ O + 9.Y.Y.Y.Y.Y.Y.Y.k.I L L $.U.Y.Y.A.E I I I F c v v 4 @ @ @ @ @ @ @ @ @ @ @ @ @ @ @         ",
"      @ @ @ @ @ @ @ @ @ @ @ @ @ + o . 9.Y.Y.Y.Y.Y.U.Y.j.E E E %.I.U.Y.N. .I I I F c v c 4 . @ @ @ @ @ @ @ @ @ @ @ @ @ @         ",
"      @ @ @ @ @ @ @ @ @ @ @ @ @ O o . 9.Y.Y.Y.m.$.$.$.p.M.M.M.j.%.$.$.+.U I I I F v v c 4 . . + @ @ # @ @ @ @ @ # @ @ @         ",
"      @ @ @ @ @ @ @ @ @ @ @ @ @ . . . 9.Y.Y.Y.g.L L L t.Y.Y.Y.M.U I I L I I I I F c v c 4 . . @ @ @ @ @ @ @ @ @ @ # @ @         ",
"      @ @ @ @ @ @ @ @ @ @ @ # # . . . 9.Y.Y.Y.g.I I L t.Y.Y.Y.M.U I I I I I I I F c v c 4 . . @ @ @ @ @ @ @ # @ @ @ @ @         ",
"      @ @ @ @ @ @ @ @ @ @ @ # - . . . 9.Y.Y.Y.g.L L L t.Y.Y.Y.m.U U I I I I I I F v c c 4 . . + @ @ @ @ @ @ @ @ @ @ @ @         ",
"      @ @ @ @ @ @ @ @ @ @ + ; h g g g r.l.l.l.p.t.t.t.s.x.x.C.f.^ Q ^ Q I I I I J G G G k 4 4 0 , @ @ @ @ @ @ @ @ @ @ @         ",
"      @ @ @ @ @ @ @ @ @ @ @ = w.Y.Y.P.i.P T I p.Y.Y.Y.z.:.;.:.;.;.;.-.[ T I I I I I I I F c v v q o + + @ @ @ @ @ @ @ @         ",
"      # @ @ @ @ @ @ @ @ O X X e.Y.Y.Y.u.I I I p.Y.Y.Y.x.;.;.;.;.;.;.;.[ T I I I I I I I G v v v q o o @ @ @ @ @ @ @ @ @         ",
"      @ @ @ @ @ @ @ @ @ X . @ e.Y.Y.Y.u.L I L p.Y.Y.Y.x.;.;.;.-.;.;.;.-.T I I I I I I I G v v v q . o + @ @ @ @ # @ @ @         ",
"      @ @ @ @ @ @ @ @ @ O . % 8.S.S.S.s.@.@.@.g.Z.N.Z.d.;.;.;.=.` ` ` ~ T I I I I I I I G v v A q . o + @ @ @ @ @ @ @ @         ",
"      @ @ @ @ @ @ @ @ @ . . . Z :.:.:.z.U.I.Y.g.U U  .&.;.;.;._ S A A G I I I I I I I I G c v v q . o + @ @ @ @ @ @ @ @         ",
"      @ @ # @ @ @ @ @ @ . . % C ;.;.;.z.Y.Y.Y.g.L I I Q ;.;.;._ A c c F I I I I I I I I G v v v q . o O @ @ @ @ @ # @ @         ",
"      @ @ @ @ @ @ @ @ @ @ . . C ;.;.;.z.Y.Y.Y.g.L I I ^ ;.;.;.) A A c F P T I I I I I I G v v v q . . + @ @ @ @ @ @ @ @         ",
"      @ @ @ @ @ @ @ @ X % . % | 1.1.1.c.J.J.J.p.R R R / ;.;.;.) A c c D I I I I I I I I G v v v q . . + @ @ @ @ @ @ @ @         ",
"      @ @ @ @ @ @ @ @ @ X . O q.U.L.L.i.......*.} { -.;.;.;.;.) A c c D P I I I I T I I G v v v q . o @ @ @ @ @ @ @ @ @         ",
"      @ @ @ @ @ @ # @ @ @ . @ e.Y.Y.Y.u.L L I / ;.;.;.;.;.;.;.) A c c D I I I I I I I I G v v A q . . + @ @ @ # @ @ @ #         ",
"      # @ @ @ @ @ @ @ @ @ . @ w.Y.Y.Y.u.I I I / ;.;.;.;.;.;.;.) A c c D L I I I I I I I G v v v q . o + @ @ @ @ @ @ @ @         ",
"      @ @ @ @ @ @ @ @ @ @ . @ q.U.U.U.y.L I I / -.-.-.-.;.;.;.) A A A D I I I I I I I I G c v v q . o @ @ @ @ @ @ @ @ @         ",
"      @ @ @ # @ @ @ @ @ @ o O | 2.1.2.*.I I I T R R R / ;.;.;._ A v c D I I I I I I I I G v v v q . . o @ @ @ @ @ @ @ @         ",
"      @ @ @ @ @ @ @ @ @ o o O C } ;.} ^ I I I I I I I ^ ;.;.;.) A c c D P I I T I I I I G v v v q . . @ @ @ @ @ @ @ @ @         ",
"      @ @ @ @ @ @ @ @ @ + o O C ;.;.;.^ I I I I I I I ^ ;.-.;.) A c c F I I I I I I I I G v v v q . . O @ @ @ @ @ @ @ @         ",
"      @ @ @ @ @ @ # @ @ + o O C ;.;.;.^ I I I I I I I ^ ;.;.;.) A A c D I I I I I I I I F v v v q . o + @ @ @ # @ @ @ @         ",
"      @ @ @ @ @ @ @ @ @ @ . O C ;.;.;.^ I I I I I I I Q ;.;.;.) A c c D P I T I T I I I G c v v q . . @ @ @ @ @ @ @ @ @         ",
"      @ @ @ @ @ @ @ @ @ @ . O C ;.;.;.^ I I I I I I I ^ ;.;.;.) A c c D L I I I I I I I G v v A q . . @ @ @ @ @ @ # @ @         ",
"      @ # @ @ @ @ @ @ @ @ . O C ;.;.;.^ I I I I I I I ^ ;.;.;.) A c c D L I I I I I I I G c A v q . . @ @ @ @ @ @ @ @ @         ",
"      @ @ @ @ @ @ @ @ @ @ . O C ;.;.;.^ I I I I I I I ^ ;.;.;.) A A A D I I I I I I I I G c v v q . . @ @ @ @ @ @ @ @ @         ",
"      @ @ @ @ @ # @ @ @ O . O C ;.;.;.^ I I I I I I I ^ ;.;.;.) A A c D P I I I I I I I G v v v q . + @ @ @ @ @ @ @ # @         ",
"      @ @ @ @ @ @ @ @ @ @ . O C ;.;.;.^ I I I I I I I ^ ;.;.;.) A c c D I I I I I I I I G v v A q . X @ @ @ @ @ @ @ @ @         ",
"      @ @ @ @ @ @ @ @ @ . . O C ;.;.;.^ I I I I I I I ^ ;.;.;.) A c c F I I I I I I I I G v v v q . . @ @ @ @ @ @ @ @ @         ",
"      @ @ @ @ @ @ @ @ @ @ . O C ;.;.;.^ I I I I I I I ^ ;.;.;.) A c c D I I I I I I I I G c v v q . . @ @ @ @ @ @ @ @ @         ",
"      @ @ @ @ @ @ @ @ @ @ . O C ;.;.;.^ I I I I I I I ^ ;.;.;.) A c c D L I I I I I I I G v v v q . o @ @ @ @ @ @ @ @ @         ",
"      @ @ @ @ @ @ @ @ @ @ . O C ;.;.;.^ I I I I I I I ^ ;.;.;.) A A A D I I I I I I I I G v v v q . o @ @ @ @ @ @ @ @ @         ",
"      @ @ @ @ @ @ @ @ @ @ . O C ;.;.;.^ I I I I I I I ^ ;.;.;.) A A c D P I I I I I I I G v v v q . o @ @ @ @ @ @ @ @ @         ",
"      @ @ @ @ @ @ @ @ @ @ . O C :.;.;.^ I I I I I I I ^ ;.;.;.) A c c D I I I T I I I I G v v v q . O @ @ @ @ @ @ @ @ @         ",
"      @ @ @ @ @ @ @ @ # O . O C ;.;.;.^ I I I I I I I ! ~ ~ ~ W A c A D L L I I I I I I G c v v q . X @ @ @ @ @ @ @ @ @         ",
"      @ @ @ # @ @ @ @ @ @ . O C ;.;.;.^ I I I I I I I K A v A v v c c D P I I I I T I I G A v v q . . @ @ @ @ @ @ @ @ @         ",
"      @ @ @ @ @ @ @ @ @ @ . O C ;.;.;.^ I I I I I I I K v v v v v v c D L I I I I I I I G c v A q . X @ @ @ @ @ @ @ @ @         ",
"      @ @ @ @ @ @ @ @ @ @ X @ C ;.;.;.^ I I I I I I I K v v c c v v c D I I I I I I I I H c v v q . @ @ @ # @ @ @ @ @ @         ",
"      @ @ @ @ @ @ @ @ @ @ + O C ;.;.;.^ I I I I I I I K D v A D v A A G I I I I I I I I J v v v q . . @ @ @ @ @ @ @ @ @         ",
"      @ @ @ @ @ @ @ @ @ @ + O C ;.;.;.^ I I I I I I I I P P P P I P P P I I I I I I I I G v v v q . X @ @ @ # @ @ @ @ @         ",
"      @ @ @ @ @ @ # @ @ @ o O C ;.;.;.^ I I I I I I I I I I I I I I I I I I I I I I I I G c v v q . @ @ @ @ @ @ @ @ @ @         ",
"      @ @ @ # @ @ @ @ @ @ @ @ C ;.;.;.^ I I I I I I I I I T I I I I I I I I I I U I I I G c v v q . . @ @ @ @ @ @ @ @ @         ",
"      # @ @ @ @ @ @ # @ @ @ $ N =.=.=.^ I U T T I I I I I I I I I I I I I I I I L I I I D x x x y X @ @ @ @ @ @ @ @ @ #         ",
"      @ @ @ @ @ @ @ @ @ @ @ @ & t u t C [ ` -.^ I I I I I I I I I I I I I I I I J D D D j < 2 2 6 ; # @ @ @ @ @ @ @ @ @         ",
"      @ @ @ @ @ @ @ @ @ @ @ @ @ + + . V ;.;.;./ I I I I I I I I I I I I I I I I F c c c 4 X + + @ @ @ @ @ @ @ @ @ @ @ @         ",
"      @ @ @ @ @ @ @ @ @ @ @ @ @ @ @ @ B ;.;.;./ I I I I I I I I I I I I I I I I F c c c 5 + # @ @ @ @ @ @ @ @ @ @ @ @ @         ",
"      @ @ @ @ @ @ @ @ @ @ @ @ @ @ @ @ m ] -.;./ I I I I I I I I I I I I I I I I F v v v 4 + @ @ @ @ @ @ @ @ @ @ @ @ @ @         ",
"      @ @ @ @ @ @ @ @ @ @ @ @ @ @ @ @ % r i i z G J G G G G G J J G G G G G G F j 5 5 0 & # @ @ @ @ @ @ @ @ @ @ @ @ @ @         ",
"      @ @ # @ @ @ @ @ @ @ # @ @ @ @ @ @ + + + w v v v v v v v v v c v v v v v x 2 . + + + @ @ @ @ @ @ @ @ @ @ @ @ @ @ @         ",
"      @ @ @ @ @ @ @ @ @ @ @ @ @ @ @ @ @ # + + 7 x v v v v v v v v v v v v v v x 2 + @ @ # @ @ @ @ @ @ @ @ @ @ @ @ @ # @         ",
"      @ @ @ @ @ @ @ @ @ @ @ @ @ @ @ @ @ @ @ @ # l v v v v v v v v v v v v v v c 2 + @ @ @ @ @ @ @ @ @ @ @ @ @ @ @ @ @ @         ",
"      @ # @ @ @ @ @ @ @ @ @ @ @ @ $ @ @ @ @ @ @ < e e e e e e e e e e e e e e w & @ @ @ @ @ @ @ @ @ @ @ @ @ @ # @ @ @ @         ",
"      @ @ @ @ @ @ @ @ @ @ @ @ @ @ @ @ @ @ @ @ @ + o o o . . . . o . . . . . o . @ @ @ @ @ @ @ @ @ @ @ @ @ @ @ @ @ @ @ @         ",
"      @ @ @ @ @ @ @ @ @ @ @ @ @ @ @ @ @ @ @ @ @ @ @ + o o o o o o o o o . o o @ @ @ @ # @ @ @ @ @ @ # @ @ @ @ @ @ @ @ @         "
};
