/* XPM */
static char *result[] = {
/* columns rows colors chars-per-pixel */
"64 64 214 2 ",
"   c #211313",
".  c #211313",
"X  c #25191A",
"o  c #211313",
"O  c #211313",
"+  c #211313",
"@  c #1F1518",
"#  c #33281C",
"$  c #6B6326",
"%  c #736C27",
"&  c #716A26",
"*  c #6F6A26",
"=  c #726B27",
"-  c #736C28",
";  c #4E4629",
":  c #261A1B",
">  c #24181A",
",  c #4A411F",
"<  c #E6E43D",
"1  c #FDFB42",
"2  c #FBF941",
"3  c #FCFA41",
"4  c #FBFA41",
"5  c #837E2B",
"6  c #211618",
"7  c #48411E",
"8  c #E9E73E",
"9  c #FFFE42",
"0  c #FEFC42",
"q  c #FFFD42",
"w  c #827E29",
"e  c #1C1416",
"r  c #241919",
"t  c #221818",
"y  c #47401D",
"u  c #E9E63E",
"i  c #837E2A",
"p  c #1B1315",
"a  c #211818",
"s  c #251A1A",
"d  c #1F1717",
"f  c #FDF941",
"g  c #F4E53D",
"h  c #F2E13C",
"j  c #F3E23C",
"k  c #7D7127",
"l  c #211717",
"z  c #201717",
"x  c #FEFD42",
"c  c #F9F040",
"v  c #D59B2E",
"b  c #CC862A",
"n  c #CD872A",
"m  c #CD882A",
"M  c #6C481F",
"N  c #F9EF3F",
"B  c #D2932C",
"V  c #C87C28",
"C  c #C97D28",
"Z  c #C97E28",
"A  c #6A441E",
"S  c #1C1516",
"D  c #C87D28",
"F  c #CA7E28",
"G  c #231818",
"H  c #1F1616",
"J  c #F9F03F",
"K  c #261B1A",
"L  c #211313",
"P  c #211313",
"I  c #1E1716",
"U  c #49421E",
"Y  c #D2932D",
"T  c #CA7F28",
"R  c #6C451E",
"E  c #1E1616",
"W  c #211313",
"Q  c #211313",
"!  c #2D2323",
"~  c #271B1B",
"^  c #463E20",
"/  c #A29E30",
"(  c #A9A531",
")  c #A8A430",
"_  c #B7AA32",
"`  c #F5C238",
"'  c #FEC539",
"]  c #FDC539",
"[  c #FBC038",
"{  c #EB9930",
"}  c #E8902E",
"|  c #E8912E",
" . c #B27026",
".. c #865520",
"X. c #875621",
"o. c #895721",
"O. c #5F4025",
"+. c #261B1B",
"@. c #595221",
"#. c #F6F440",
"$. c #FFFF43",
"%. c #FFEF40",
"&. c #FDA634",
"*. c #FD9B32",
"=. c #FD9C32",
"-. c #FE9D32",
";. c #E18C2C",
":. c #CB7F28",
">. c #CD8128",
",. c #7D4F20",
"<. c #24191A",
"1. c #1C1316",
"2. c #575120",
"3. c #F3F140",
"4. c #FEED3F",
"5. c #FDA734",
"6. c #FD9D32",
"7. c #E08C2C",
"8. c #C87E28",
"9. c #7B4F20",
"0. c #1B1316",
"q. c #7B4E20",
"w. c #1D1616",
"e. c #FA9B32",
"r. c #E9912E",
"t. c #E58E2E",
"y. c #E58F2E",
"u. c #D5852A",
"i. c #1D1516",
"p. c #251919",
"a. c #F89A31",
"s. c #D1832A",
"d. c #D2832A",
"f. c #231919",
"g. c #231819",
"h. c #F79A31",
"j. c #F9EA3F",
"k. c #E2972F",
"l. c #DF8A2C",
"z. c #DF8B2C",
"x. c #DD8A2C",
"c. c #CD8029",
"v. c #F5E83E",
"b. c #CE8C2B",
"n. c #F6E83E",
"m. c #CF8C2B",
"M. c #585220",
"N. c #F8EB3E",
"B. c #221719",
"V. c #4E4722",
"C. c #C2BF36",
"Z. c #CAC737",
"A. c #CCBD35",
"S. c #D58D2C",
"D. c #D7862B",
"F. c #B27025",
"G. c #A06524",
"H. c #A16524",
"J. c #A36724",
"K. c #67421F",
"L. c #2A1F1C",
"P. c #2D251A",
"I. c #2C2518",
"U. c #2A2318",
"Y. c #513A1C",
"T. c #E7902F",
"R. c #FC9C32",
"E. c #FB9C32",
"W. c #F59831",
"Q. c #70481E",
"!. c #261B17",
"~. c #2A1D17",
"^. c #2E1F1A",
"/. c #2A1D1A",
"(. c #1B1416",
"). c #462D1A",
"_. c #E8902F",
"`. c #FF9E32",
"'. c #472E1A",
"]. c #FE9E32",
"[. c #1D1517",
"{. c #472E1B",
"}. c #462E1A",
"|. c #E48E2E",
" X c #FA9B31",
".X c #F99B31",
"XX c #F49830",
"oX c #3E2919",
"OX c #C17928",
"+X c #D4842A",
"@X c #D3842A",
"#X c #3D2919",
"$X c #B87426",
"%X c #402A1B",
"&X c #B97426",
"*X c #6B441E",
"=X c #1F1618",
"-X c #402A1C",
";X c #B57126",
":X c #C67C28",
">X c #C57C27",
",X c #C67C27",
"<X c #6B451F",
"1X c #2D1F1B",
"2X c #50341B",
"3X c #55371B",
"4X c #56371C",
"5X c #57391D",
"6X c #412E22",
"7X c #201618",
"8X c #221819",
"9X c #23181A",
"0X c #251A1B",
"qX c white",
/* pixels */
"      . . . . . . . . . . . . . . . . . . . . . . . . . . . . . . . . . . . . . . . . . . . . . . . . . . . . . . . . .         ",
"      . . . . . . . . . . . . . . . . . . . . . . . X o O + @ @ + o o X . . . . . . . . . . . . . . . . . . . . . . . .         ",
"      . . . . . . . . . . . . . . . . . . . . . . X # $ % & * * & = - ; : . . . . . . . . . . . . . . . . . . . . . . .         ",
"      . . . . . . . . . . . . . . . . . . . . . . > , < 1 2 3 3 2 4 3 5 6 . . . . . . . . . . . . . . . . . . . . . . .         ",
"      . . . . . . . . . . . . . . . . . . . . . . 6 7 8 9 0 0 0 0 0 q w e r . . . . . . . . . . . . . . . . . . . . . .         ",
"      . . . . . . . . . . . . . . . . . . . . . t e y u q 0 0 q q 9 9 i p a . . . . . . . . . . . . . . . . . . . . . .         ",
"      . . . . . . . . . . . . . . . . . . . . s d e y u q 0 f g h h j k p l . . . . . . . . . . . . . . . . . . . . . .         ",
"      . . . . . . . . . . . . . . . . . . . . . z e y u q x c v b n m M e a . . . . . . . . . . . . . . . . . . . . . .         ",
"      . . . . . . . . . . . . . . . . . . . . . z e y u q x N B V C Z A S t . . . . . . . . . . . . . . . . . . . . . .         ",
"      . . . . . . . . . . . . . . . . . . . . . z e y u q x N B D Z F A S G . . . . . . . . . . . . . . . . . . . . . .         ",
"      . . . . . . . . . . . . . . . . . . . . . z e y u q x N B D Z F A S G . . . . . . . . . . . . . . . . . . . . . .         ",
"      . . . . . . . . . . . . . . . . . . . . . z e y u q x N B D Z F A S G . . . . . . . . . . . . . . . . . . . . . .         ",
"      . . . . . . . . . . . . . . . . . . . . . z e y u q x N B D Z F A S a . . . . . . . . . . . . . . . . . . . . . .         ",
"      . . . . . . . . . . . . . . . . . . . . t H p y 8 q x J B D Z F A S H r . . . . . . . . . . . . . . . . . . . . .         ",
"      . . . . . . . . . . . . . . . . . . . K L P I U u q 0 N Y C Z T R E W Q ! ~ . . . . . . . . . . . . . . . . . . .         ",
"      . . . . . . . . . . . . . . . . . . > ^ / ( ) _ ` ' ] [ { } } |  ...X.o.O.+.. . . . . . . . . . . . . . . . . . .         ",
"      . . . . . . . . . . . . . . . . . . @ @.#.$.$.%.&.*.=.=.-.-.-.-.;.T :.>.,.<.. . . . . . . . . . . . . . . . . . .         ",
"      . . . . . . . . . . . . . . . . . r 1.2.3.q x 4.5.=.6.6.6.6.6.6.7.8.Z :.9.t . . . . . . . . . . . . . . . . . . .         ",
"      . . . . . . . . . . . . . . . . . r 0.2.3.q x 4.5.=.6.6.6.-.-.-.7.8.Z :.q.w.a s . . . . . . . . . . . . . . . . .         ",
"      . . . . . . . . . . . . . . . . . G p 2.3.q x 4.5.=.6.e.r.t.y.y.u.Z Z :.q.i.H p.. . . . . . . . . . . . . . . . .         ",
"      . . . . . . . . . . . . . . . . . t p 2.3.q x 4.5.=.6.a.s.8.Z Z Z Z Z :.q.i.z s . . . . . . . . . . . . . . . . .         ",
"      . . . . . . . . . . . . . . . . . l p 2.3.q x 4.5.=.6.a.d.8.Z Z Z Z Z :.q.i.z . . . . . . . . . . . . . . . . . .         ",
"      . . . . . . . . . . . . . . . . . l p 2.3.q x 4.5.=.6.a.d.8.Z Z Z Z Z :.q.i.z . . . . . . . . . . . . . . . . . .         ",
"      . . . . . . . . . . . . . . . . . l p 2.3.q x 4.5.=.6.a.d.8.Z Z Z Z Z :.q.i.l . . . . . . . . . . . . . . . . . .         ",
"      . . . . . . . . . . . . . . . . . l p 2.3.q x 4.5.=.6.a.d.8.Z Z Z Z Z :.q.i.a . . . . . . . . . . . . . . . . . .         ",
"      . . . . . . . . . . . . . . . . . l p 2.3.q x 4.5.=.6.a.d.8.Z Z Z Z Z :.q.i.t . . . . . . . . . . . . . . . . . .         ",
"      . . . . . . . . . . . . . . . . . l p 2.3.q x 4.5.=.6.a.d.8.Z Z Z Z Z :.q.i.f.. . . . . . . . . . . . . . . . . .         ",
"      . . . . . . . . . . . . . . . . . l p 2.3.q x 4.5.=.6.a.d.8.Z Z Z Z Z :.q.i.f.. . . . . . . . . . . . . . . . . .         ",
"      . . . . . . . . . . . . . . . . . l p 2.3.q x 4.5.=.6.a.d.8.Z Z Z Z Z :.q.i.f.. . . . . . . . . . . . . . . . . .         ",
"      . . . . . . . . . . . . . . . . . z p 2.3.q x 4.5.=.6.a.d.8.Z Z Z Z Z :.q.i.f.. . . . . . . . . . . . . . . . . .         ",
"      . . . . . . . . . . . . . . . . s d p 2.3.q x 4.5.=.6.a.d.8.Z Z Z Z Z :.q.i.g.. . . . . . . . . . . . . . . . . .         ",
"      . . . . . . . . . . . . . . . . r H p 2.3.q x 4.5.=.6.a.d.8.Z Z Z Z Z :.q.i.t . . . . . . . . . . . . . . . . . .         ",
"      . . . . . . . . . . . . . . . . G E p 2.3.q x 4.5.=.6.a.d.8.Z Z Z Z Z :.q.i.t . . . . . . . . . . . . . . . . . .         ",
"      . . . . . . . . . . . . . . . . t E p 2.3.q x 4.5.=.6.a.d.8.Z Z Z Z Z :.q.i.t . . . . . . . . . . . . . . . . . .         ",
"      . . . . . . . . . . . . . . . . p.d p 2.3.q x 4.5.=.6.a.d.8.Z Z Z Z Z :.q.i.a . . . . . . . . . . . . . . . . . .         ",
"      . . . . . . . . . . . . . . . . . t p 2.3.q x 4.5.=.6.a.d.8.Z Z Z Z Z :.q.i.a . . . . . . . . . . . . . . . . . .         ",
"      . . . . . . . . . . . . . . . . . t p 2.3.q x 4.5.=.6.a.d.8.Z Z Z Z Z :.q.i.l . . . . . . . . . . . . . . . . . .         ",
"      . . . . . . . . . . . . . . . . . l p 2.3.q x 4.5.=.6.a.d.8.Z Z Z Z Z :.q.i.l . . . . . . . . . . . . . . . . . .         ",
"      . . . . . . . . . . . . . . . . r E p 2.3.q x 4.5.=.6.a.d.8.Z Z Z Z Z :.q.i.l . . . . . . . . . . . . . . . . . .         ",
"      . . . . . . . . . . . . . . . . t E p 2.3.q x 4.5.=.6.a.d.8.Z Z Z Z Z :.q.i.l . . . . . . . . . . . . . . . . . .         ",
"      . . . . . . . . . . . . . . . . t E p 2.3.q x 4.5.=.6.a.d.8.Z Z Z Z Z :.q.i.l . . . . . . . . . . . . . . . . . .         ",
"      . . . . . . . . . . . . . . . . t E p 2.3.q x 4.5.=.6.a.d.8.Z Z Z Z Z :.q.i.l . . . . . . . . . . . . . . . . . .         ",
"      . . . . . . . . . . . . . . . . t E p 2.3.q x 4.5.=.6.a.d.8.Z Z Z Z Z :.q.i.l . . . . . . . . . . . . . . . . . .         ",
"      . . . . . . . . . . . . . . . . t E p 2.3.q x 4.5.=.6.h.s.8.Z Z Z Z Z :.q.i.l . . . . . . . . . . . . . . . . . .         ",
"      . . . . . . . . . . . . . . . . t E p 2.3.q x j.k.l.z.x.c.Z Z Z Z Z Z :.q.i.z . . . . . . . . . . . . . . . . . .         ",
"      . . . . . . . . . . . . . . . . f.E p 2.3.q x v.b.D 8.8.Z Z Z Z Z Z Z :.q.i.z . . . . . . . . . . . . . . . . . .         ",
"      . . . . . . . . . . . . . . . . r E p 2.3.q x n.m.C Z Z Z Z Z Z Z Z Z :.q.w.t . . . . . . . . . . . . . . . . . .         ",
"      . . . . . . . . . . . . . . . . s t 1.M.#.$.$.N.b.D 8.8.Z Z Z Z T :.:.>.,.a . . . . . . . . . . . . . . . . . . .         ",
"      . . . . . . . . . . . . . . . . . . B.V.C.Z.Z.A.S.D.D.u.:.Z Z Z F.G.H.J.K.X . . . . . . . . . . . . . . . . . . .         ",
"      . . . . . . . . . . . . . . . . . . . L.P.I.U.Y.T.R.E.W.s.Z Z F Q.!.~.^./.. . . . . . . . . . . . . . . . . . . .         ",
"      . . . . . . . . . . . . . . . . . . . . l i.(.)._.`.-.a.d.8.Z F A (.t s . . . . . . . . . . . . . . . . . . . . .         ",
"      . . . . . . . . . . . . . . . . . . . . f.E S '._.].6.a.d.8.Z F A i.p.. . . . . . . . . . . . . . . . . . . . . .         ",
"      . . . . . . . . . . . . . . . . . . . . p.H S '._.].6.a.d.8.Z F A [.s . . . . . . . . . . . . . . . . . . . . . .         ",
"      . . . . . . . . . . . . . . . . . . . . p.H S '._.].6.a.d.8.Z F A [.s . . . . . . . . . . . . . . . . . . . . . .         ",
"      . . . . . . . . . . . . . . . . . . . . p.H S '._.].6.a.d.8.Z F A i.s . . . . . . . . . . . . . . . . . . . . . .         ",
"      . . . . . . . . . . . . . . . . . . . . p.H S {._.`.-.a.d.8.Z F A i.s . . . . . . . . . . . . . . . . . . . . . .         ",
"      . . . . . . . . . . . . . . . . . . . . p.d S }.|. X.XXXs.Z Z F A i.s . . . . . . . . . . . . . . . . . . . . . .         ",
"      . . . . . . . . . . . . . . . . . . . . . f.i.oXOX+X@Xd.:.Z Z F A i.s . . . . . . . . . . . . . . . . . . . . . .         ",
"      . . . . . . . . . . . . . . . . . . . . . . a #X$XZ 8.8.Z Z Z F A i.s . . . . . . . . . . . . . . . . . . . . . .         ",
"      . . . . . . . . . . . . . . . . . . . . . . <.%X&XT Z Z Z Z Z T *X=X. . . . . . . . . . . . . . . . . . . . . . .         ",
"      . . . . . . . . . . . . . . . . . . . . . . <.-X;X:X>X>X>X>X>X,X<Xg.. . . . . . . . . . . . . . . . . . . . . . .         ",
"      . . . . . . . . . . . . . . . . . . . . . . . 1X2X3X3X3X3X3X4X5X6X. . . . . . . . . . . . . . . . . . . . . . . .         ",
"      . . . . . . . . . . . . . . . . . . . . . . . X i.(.(.(.S 7X8X9X0X. . . . . . . . . . . . . . . . . . . . . . . .         ",
"      . . . . . . . . . . . . . . . . . . . . . . . s z H H z r . . . . . . . . . . . . . . . . . . . . . . . . . . . .         "
};
