/* XPM */
static char *c5c202213586477de69c9b7c6e855184fWBXmM3D02WDGyCr[] = {
/* columns rows colors chars-per-pixel */
"64 64 131 2 ",
"   c black",
".  c #131A1D",
"X  c #1C1B1F",
"o  c #1C1C21",
"O  c #221D24",
"+  c #2B1B22",
"@  c #281E29",
"#  c #321D25",
"$  c #222123",
"%  c #2D222A",
"&  c #34222F",
"*  c #3C2228",
"=  c #372B2B",
"-  c #382B2B",
";  c #362330",
":  c #382331",
">  c #3F2833",
",  c #461D27",
"<  c #4E1D29",
"1  c #531D2A",
"2  c #641E2D",
"3  c #6E1E2F",
"4  c #6F1F30",
"5  c #701F30",
"6  c #40202D",
"7  c #55212C",
"8  c #5A242F",
"9  c #432637",
"0  c #4C2231",
"q  c #432935",
"w  c #482F35",
"e  c #46263A",
"r  c #49273A",
"t  c #4A283A",
"y  c #532436",
"u  c #5D2335",
"i  c #522638",
"p  c #522D3D",
"a  c #5A2D3C",
"s  c #55303D",
"d  c #5A323E",
"f  c #642133",
"g  c #6E2131",
"h  c #692E36",
"j  c #662D3B",
"k  c #742534",
"l  c #792A37",
"z  c #7B2F39",
"x  c #6E393E",
"c  c #71323B",
"v  c #7E323B",
"b  c #5E3541",
"n  c #643541",
"m  c #653943",
"M  c #6A3C44",
"N  c #713B43",
"B  c #6A4340",
"V  c #724445",
"C  c #7D4247",
"Z  c #764448",
"A  c #7A4549",
"S  c #7F4A4B",
"D  c #81363E",
"F  c #873E42",
"G  c #883F43",
"H  c #844145",
"J  c #894144",
"K  c #8F4748",
"L  c #804A4C",
"P  c #814A4C",
"I  c #814B4C",
"U  c #824B4C",
"Y  c #834C4C",
"T  c #854D4D",
"R  c #874E4E",
"E  c #844A4B",
"W  c #8B4949",
"Q  c #8A494A",
"!  c #8F4848",
"~  c #8E4849",
"^  c #8F4949",
"/  c #914A4A",
"(  c #914B4A",
")  c #934C4B",
"_  c #934D4C",
"`  c #8C544D",
"'  c #8E544E",
"]  c #97524F",
"[  c #90544E",
"{  c #95544F",
"}  c #915550",
"|  c #925551",
" . c #935551",
".. c #935651",
"X. c #945551",
"o. c #975450",
"O. c #975550",
"+. c #945651",
"@. c #945652",
"#. c #985450",
"$. c #995450",
"%. c #995550",
"&. c #985651",
"*. c #995651",
"=. c #9B5752",
"-. c #985953",
";. c #995953",
":. c #9A5A53",
">. c #9B5B53",
",. c #9C5852",
"<. c #9C5952",
"1. c #9B5B54",
"2. c #9C5B54",
"3. c #9D5B54",
"4. c #9E5B54",
"5. c #9C5C54",
"6. c #9D5C54",
"7. c #9D5C55",
"8. c #9E5C54",
"9. c #9E5C55",
"0. c #9E5D55",
"q. c #9F5D55",
"w. c #9F5E55",
"e. c #A05D55",
"r. c #A05E55",
"t. c #A15E55",
"y. c #A05E56",
"u. c #A15E56",
"i. c #A15F56",
"p. c #A25E56",
"a. c #A25F56",
/* pixels */
". . . < k ( y.q.q.q.q.q.q.q.q.q.q.q.q.q.q.q.q.q.q.q.q.q.q.q.q.q.q.q.q.q.q.q.q.q.q.q.q.q.q.q.q.q.q.q.q.q.q.q.q.q.q.q.v 3 4 3 + . ",
". X X 7 k _ y.q.q.q.q.q.q.q.q.q.q.q.q.q.q.q.q.q.q.q.q.q.q.q.q.q.q.q.q.q.q.q.q.q.q.q.q.q.q.q.q.q.q.q.q.q.q.q.q.q.q.q.D k k 3 + . ",
". , 2 H *.3.q.q.q.q.q.q.q.q.q.q.q.q.q.q.q.q.q.q.q.q.q.q.q.q.q.q.q.q.q.q.q.q.q.q.q.q.q.q.q.q.q.q.q.q.q.q.q.q.q.q.q.q.*.] l 3 + . ",
"o 8 l ( y.q.q.q.q.q.q.q.q.q.q.q.q.q.q.q.q.q.q.q.q.q.q.q.q.q.q.q.q.q.q.q.q.q.q.q.q.q.q.q.q.q.q.q.q.q.q.q.q.q.q.q.q.q.q.3.D k # o ",
"9 A ,.3.q.q.q.q.q.q.q.q.q.q.q.q.q.q.q.q.q.q.q.q.q.q.q.q.q.q.q.q.q.q.q.q.q.q.q.q.q.q.q.q.q.q.q.q.q.q.q.q.q.q.q.q.q.q.q.q.,.*.d 9 ",
"t U y.q.q.q.q.q.q.q.q.q.q.q.q.q.q.q.q.q.q.q.q.q.q.q.q.q.q.q.q.q.q.q.q.q.q.q.q.q.q.q.q.q.q.q.q.q.q.q.q.q.q.q.q.q.q.q.q.q.q.q.b 9 ",
"r U y.q.q.q.q.q.q.q.q.q.q.q.q.q.q.q.q.q.q.q.q.q.q.q.q.q.q.q.q.q.q.q.q.q.q.q.q.q.q.q.q.q.q.q.q.q.q.q.q.q.q.q.q.q.q.q.q.q.q.3.b 9 ",
"r U y.q.q.q.q.q.q.q.q.q.q.q.q.q.q.q.q.q.q.q.q.q.q.q.q.q.q.q.q.q.q.q.q.q.q.q.q.q.q.q.q.q.q.q.q.q.q.q.q.q.q.q.q.q.q.q.q.y.q.3.n r ",
"r U y.q.q.q.q.q.q.q.q.q.q.q.q.q.q.q.q.q.q.q.q.q.q.q.q.q.q.q.q.q.q.q.q.q.q.q.q.q.q.q.q.q.q.q.q.q.q.q.q.q.q.q.q.q.q.q.q.q.q.3.z 4 ",
"r U y.q.q.q.q.q.q.q.q.q.q.q.q.q.q.q.q.q.q.q.q.q.q.q.q.q.q.q.q.q.q.q.q.q.q.q.q.q.q.q.q.q.q.q.q.q.q.q.q.q.q.q.q.q.q.q.q.q.q.3.z 3 ",
"t U y.q.q.q.q.q.q.q.q.q.q.q.q.q.q.q.q.q.q.q.q.q.q.q.q.q.q.q.q.q.q.q.q.q.q.q.q.q.q.q.q.q.q.q.q.q.q.q.q.q.q.q.q.q.q.q.q.q.q.3.z 3 ",
"i E y.q.q.q.q.q.q.q.q.q.q.q.q.q.q.q.q.q.q.q.q.q.q.q.q.q.q.q.q.q.q.q.q.q.q.q.q.q.q.q.q.q.q.q.q.q.q.q.q.q.q.q.q.q.q.q.q.q.q.3.z 3 ",
"g ~ y.q.q.q.q.q.q.q.q.q.q.q.q.q.q.q.q.q.q.q.q.q.q.q.q.q.q.q.q.q.q.q.q.q.q.q.q.q.q.q.q.q.q.q.q.q.q.q.q.q.q.q.q.q.q.q.q.q.q.3.z 3 ",
"k ~ y.q.q.q.q.q.q.q.q.q.q.q.q.q.q.q.q.q.q.q.q.q.q.q.q.q.q.q.q.q.q.q.q.q.q.q.q.q.q.q.q.q.q.q.q.q.q.q.q.q.q.q.q.q.q.q.q.q.q.3.z 3 ",
"g ~ y.q.q.q.q.q.q.q.q.q.q.q.q.q.q.q.q.q.q.q.q.q.q.q.q.q.q.q.q.q.q.q.q.q.q.q.q.q.q.q.q.q.q.q.q.q.q.q.q.q.q.q.q.q.q.q.q.q.q.3.z 3 ",
"g ~ y.q.q.q.q.q.q.q.q.q.q.q.q.q.q.q.q.q.q.q.q.q.q.q.q.q.q.q.q.q.q.q.q.q.q.q.q.q.q.q.q.q.q.q.q.q.q.q.q.q.q.q.q.q.q.q.q.q.q.3.z 3 ",
"g ~ y.q.q.q.q.q.q.q.q.q.q.q.q.q.q.q.q.q.q.q.q.q.q.q.q.q.q.q.q.q.q.q.q.q.q.q.q.q.q.q.q.q.q.q.q.q.q.q.q.q.q.q.q.q.q.q.q.q.q.3.z 3 ",
"g ~ y.q.q.q.q.q.q.q.q.q.q.q.q.q.q.q.q.q.q.q.q.q.q.q.q.q.q.q.q.q.q.q.q.q.q.q.q.q.q.q.q.q.q.q.q.q.q.q.q.q.q.q.q.q.q.q.q.q.q.3.c f ",
"g ~ y.q.q.q.q.q.q.q.q.q.q.q.q.q.q.q.q.q.q.q.q.q.q.q.q.q.q.q.q.q.q.q.q.q.q.q.q.q.q.q.q.q.q.q.q.q.q.q.q.q.q.q.q.q.q.q.q.q.q.3.b 9 ",
"g ~ y.q.q.q.q.q.q.q.q.q.q.q.q.q.q.q.q.q.q.q.q.q.q.q.q.q.q.q.q.q.q.q.q.q.q.q.q.q.q.q.q.q.q.q.q.q.q.q.q.q.q.q.q.q.q.q.q.q.y.3.b 9 ",
"g ~ y.q.q.q.q.q.q.q.q.q.q.q.q.q.q.q.q.q.q.q.q.q.q.q.q.q.q.q.q.q.q.q.q.q.q.q.q.q.q.q.q.q.q.q.q.q.q.q.q.q.q.q.q.q.q.q.q.q.q.3.b 9 ",
"g ~ y.q.q.q.q.q.q.q.q.q.q.q.q.q.q.q.q.q.q.q.q.q.q.q.q.q.q.q.q.q.q.q.q.q.q.q.q.q.q.q.q.q.q.q.q.q.q.q.q.q.q.q.q.q.q.q.q.q.q.3.b 9 ",
"5 ~ y.q.q.q.q.q.q.q.q.q.q.q.q.q.q.q.q.q.q.q.q.q.q.q.q.q.q.q.q.q.q.q.q.q.q.q.q.q.q.q.q.q.q.q.q.q.q.q.q.q.q.q.q.q.q.q.q.q.q.3.b 9 ",
"f Q y.q.q.q.q.q.q.q.q.q.q.q.q.q.q.q.q.q.q.q.q.q.q.q.q.q.q.q.q.q.q.q.q.q.q.q.q.q.q.q.q.q.q.q.q.q.q.q.q.q.q.q.q.q.q.q.q.q.q.3.s & ",
"r U y.y.q.q.q.q.q.q.q.q.q.q.q.q.q.q.q.q.q.q.q.q.q.q.q.q.q.q.q.q.q.q.q.q.q.q.q.q.q.q.q.q.q.q.q.q.q.q.q.q.q.q.q.q.q.q.q.q.y.q.- . ",
"r M A | y.q.q.q.q.q.q.q.q.q.q.q.q.q.q.q.q.q.q.q.q.q.q.q.q.q.q.q.q.q.q.q.q.q.q.q.q.q.q.q.q.q.q.q.q.q.q.q.q.q.q.q.q.q.q.q.Y Z % . ",
"r r r U y.q.q.q.q.q.q.q.q.q.q.q.q.q.q.q.q.q.q.q.q.q.q.q.q.q.q.q.q.q.q.q.q.q.q.q.q.q.q.q.q.q.q.q.q.q.q.q.q.q.q.q.q.q.y.q.b 9 O . ",
"r r r m Z | y.q.q.q.q.q.q.q.q.q.q.q.q.q.q.q.q.q.q.q.q.q.q.q.q.q.q.q.q.q.q.q.q.q.q.q.q.q.q.q.q.q.q.q.q.q.q.q.q.q.q.q.U V p 9 O . ",
"r r r 9 t R y.y.y.y.y.y.y.y.y.y.y.y.y.y.y.y.y.y.y.y.y.y.y.y.y.y.y.y.y.y.y.y.y.y.y.y.y.y.y.y.y.y.y.y.y.y.y.y.y.y.y.q.m 9 r 9 O . ",
"r r r r t M Z H G J J J J J J J J J J J J J J J J J J J J J J J J J J G H Z C J J J J J J J J J J J J J J J J J C Z s 9 r 9 O . ",
"r r r r r 9 9 f 3 3 3 3 3 3 3 3 3 3 3 3 3 3 3 3 3 3 3 3 3 3 3 3 3 3 3 3 f 9 y 3 3 3 3 3 3 3 3 3 3 3 3 3 3 3 3 3 y 9 9 r r 9 O . ",
"% % % 0 u N A H J J J J J J J J J J J J J J J J J J J J J J J J J J J J H A C J J J J J J J J J J J J J J J J J A Z j u u u + . ",
". . . < k ) y.y.y.y.y.y.y.y.y.y.y.y.y.y.y.y.y.y.y.y.y.y.y.y.y.y.y.y.y.y.y.y.y.y.y.y.y.y.y.y.y.y.y.y.y.y.y.y.y.y.y.y.v 3 5 3 + . ",
". # , c J *.q.q.q.q.q.q.q.q.q.q.q.q.q.q.q.q.q.q.q.q.q.q.q.q.q.q.q.q.q.q.q.q.q.q.q.q.q.q.q.q.q.q.q.q.q.q.q.q.q.q.q.q.~ F k 4 6 % ",
". 1 5 K y.q.q.q.q.q.q.q.q.q.q.q.q.q.q.q.q.q.q.q.q.q.q.q.q.q.q.q.q.q.q.q.q.q.q.q.q.q.q.q.q.q.q.q.q.q.q.q.q.q.q.q.q.q.y.3.z 4 i r ",
"& x K *.q.q.q.q.q.q.q.q.q.q.q.q.q.q.q.q.q.q.q.q.q.q.q.q.q.q.q.q.q.q.q.q.q.q.q.q.q.q.q.q.q.q.q.q.q.q.q.q.q.q.q.q.q.q.q.q.( J a 9 ",
"t U y.q.q.q.q.q.q.q.q.q.q.q.q.q.q.q.q.q.q.q.q.q.q.q.q.q.q.q.q.q.q.q.q.q.q.q.q.q.q.q.q.q.q.q.q.q.q.q.q.q.q.q.q.q.q.q.q.q.y.q.b 9 ",
"r U y.q.q.q.q.q.q.q.q.q.q.q.q.q.q.q.q.q.q.q.q.q.q.q.q.q.q.q.q.q.q.q.q.q.q.q.q.q.q.q.q.q.q.q.q.q.q.q.q.q.q.q.q.q.q.q.q.q.q.1.w @ ",
"r U y.q.q.q.q.q.q.q.q.q.q.q.q.q.q.q.q.q.q.q.q.q.q.q.q.q.q.q.q.q.q.q.q.q.q.q.q.q.q.q.q.q.q.q.q.q.q.q.q.q.q.q.q.q.q.q.q.q.q.;.= . ",
"r U y.q.q.q.q.q.q.q.q.q.q.q.q.q.q.q.q.q.q.q.q.q.q.q.q.q.q.q.q.q.q.q.q.q.q.q.q.q.q.q.q.q.q.q.q.q.q.q.q.q.q.q.q.q.q.q.q.q.q.;.- . ",
"r U y.q.q.q.q.q.q.q.q.q.q.q.q.q.q.q.q.q.q.q.q.q.q.q.q.q.q.q.q.q.q.q.q.q.q.q.q.q.q.q.q.q.q.q.q.q.q.q.q.q.q.q.q.q.q.q.q.q.q.;.- . ",
"r U y.q.q.q.q.q.q.q.q.q.q.q.q.q.q.q.q.q.q.q.q.q.q.q.q.q.q.q.q.q.q.q.q.q.q.q.q.q.q.q.q.q.q.q.q.q.q.q.q.q.q.q.q.q.q.q.q.q.q.;.- . ",
"r U y.q.q.q.q.q.q.q.q.q.q.q.q.q.q.q.q.q.q.q.q.q.q.q.q.q.q.q.q.q.q.q.q.q.q.q.q.q.q.q.q.q.q.q.q.q.q.q.q.q.q.q.q.q.q.q.q.q.q.;.- . ",
"f Q y.q.q.q.q.q.q.q.q.q.q.q.q.q.q.q.q.q.q.q.q.q.q.q.q.q.q.q.q.q.q.q.q.q.q.q.q.q.q.q.q.q.q.q.q.q.q.q.q.q.q.q.q.q.q.q.q.q.q.;.- . ",
"5 ~ y.q.q.q.q.q.q.q.q.q.q.q.q.q.q.q.q.q.q.q.q.q.q.q.q.q.q.q.q.q.q.q.q.q.q.q.q.q.q.q.q.q.q.q.q.q.q.q.q.q.q.q.q.q.q.q.q.q.q.;.- . ",
"g ~ y.q.q.q.q.q.q.q.q.q.q.q.q.q.q.q.q.q.q.q.q.q.q.q.q.q.q.q.q.q.q.q.q.q.q.q.q.q.q.q.q.q.q.q.q.q.q.q.q.q.q.q.q.q.q.q.q.q.q.;.= . ",
"g ~ y.q.q.q.q.q.q.q.q.q.q.q.q.q.q.q.q.q.q.q.q.q.q.q.q.q.q.q.q.q.q.q.q.q.q.q.q.q.q.q.q.q.q.q.q.q.q.q.q.q.q.q.q.q.q.q.q.q.q.;.- . ",
"g ~ y.q.q.q.q.q.q.q.q.q.q.q.q.q.q.q.q.q.q.q.q.q.q.q.q.q.q.q.q.q.q.q.q.q.q.q.q.q.q.q.q.q.q.q.q.q.q.q.q.q.q.q.q.q.q.q.q.q.q.3.h 1 ",
"g ~ y.q.q.q.q.q.q.q.q.q.q.q.q.q.q.q.q.q.q.q.q.q.q.q.q.q.q.q.q.q.q.q.q.q.q.q.q.q.q.q.q.q.q.q.q.q.q.q.q.q.q.q.q.q.q.q.q.q.q.3.z 5 ",
"k ~ y.q.q.q.q.q.q.q.q.q.q.q.q.q.q.q.q.q.q.q.q.q.q.q.q.q.q.q.q.q.q.q.q.q.q.q.q.q.q.q.q.q.q.q.q.q.q.q.q.q.q.q.q.q.q.q.q.q.q.3.z 3 ",
"g ~ y.q.q.q.q.q.q.q.q.q.q.q.q.q.q.q.q.q.q.q.q.q.q.q.q.q.q.q.q.q.q.q.q.q.q.q.q.q.q.q.q.q.q.q.q.q.q.q.q.q.q.q.q.q.q.q.q.q.q.3.z 3 ",
"i E y.q.q.q.q.q.q.q.q.q.q.q.q.q.q.q.q.q.q.q.q.q.q.q.q.q.q.q.q.q.q.q.q.q.q.q.q.q.q.q.q.q.q.q.q.q.q.q.q.q.q.q.q.q.q.q.q.q.q.3.z 3 ",
"t U y.q.q.q.q.q.q.q.q.q.q.q.q.q.q.q.q.q.q.q.q.q.q.q.q.q.q.q.q.q.q.q.q.q.q.q.q.q.q.q.q.q.q.q.q.q.q.q.q.q.q.q.q.q.q.q.q.q.q.3.z 3 ",
"r U y.q.q.q.q.q.q.q.q.q.q.q.q.q.q.q.q.q.q.q.q.q.q.q.q.q.q.q.q.q.q.q.q.q.q.q.q.q.q.q.q.q.q.q.q.q.q.q.q.q.q.q.q.q.q.q.q.q.q.3.z 3 ",
"r U y.q.q.q.q.q.q.q.q.q.q.q.q.q.q.q.q.q.q.q.q.q.q.q.q.q.q.q.q.q.q.q.q.q.q.q.q.q.q.q.q.q.q.q.q.q.q.q.q.q.q.q.q.q.q.q.q.q.q.3.z 3 ",
"t U y.q.q.q.q.q.q.q.q.q.q.q.q.q.q.q.q.q.q.q.q.q.q.q.q.q.q.q.q.q.q.q.q.q.q.q.q.q.q.q.q.q.q.q.q.q.q.q.q.q.q.q.q.q.q.q.q.q.y.3.z 3 ",
"9 S y.q.q.q.q.q.q.q.q.q.q.q.q.q.q.q.q.q.q.q.q.q.q.q.q.q.q.q.q.q.q.q.q.q.q.q.q.q.q.q.q.q.q.q.q.q.q.q.q.q.q.q.q.q.q.q.q.q.;.@.z 3 ",
"o V y.q.q.q.q.q.q.q.q.q.q.q.q.q.q.q.q.q.q.q.q.q.q.q.q.q.q.q.q.q.q.q.q.q.q.q.q.q.q.q.q.q.q.q.q.q.q.q.q.q.q.q.q.q.q.q.y.3.m p f 5 ",
". B ;.3.q.q.q.q.q.q.q.q.q.q.q.q.q.q.q.q.q.q.q.q.q.q.q.q.q.q.q.q.q.q.q.q.q.q.q.q.q.q.q.q.q.q.q.q.q.q.q.q.q.q.q.q.q.q.;.@.b 9 f 5 ",
". > s R y.y.y.y.q.q.q.y.y.q.q.q.q.q.q.q.q.q.q.q.q.y.y.y.y.y.y.y.y.y.y.y.y.q.q.q.q.q.q.q.q.q.q.q.q.q.q.q.q.q.q.q.q.q.M p t r f 5 ",
". ; r A @.' ' { *.*.*.@.| @.*.*.*.*.*.*.*.*.*.*.@.| | @.@.| | ' ' ' ' ' [ *.*.*.*.*.*.*.*.*.*.*.*.*.*.*.*.*.*.*.*.@.n r r r f 5 ",
". ; r t p % $ 8 k k k a p g k k k k k k k k k k g p p p p p q $ $ $ $ $ * k k k k k k k k k k k k k k k k k k k k k g f f f 4 5 ",
". ; r r 9 O . 1 5 4 4 i r f 4 4 4 4 4 4 4 4 4 4 f r 9 9 r r : . . . . . # 3 4 4 4 4 4 4 4 4 4 4 4 4 4 4 4 4 4 4 4 4 4 4 4 5 5 5 ",
"                                                                                                                                "
};
